<mxfile host="app.diagrams.net" modified="2022-05-11T09:47:48.990Z" agent="5.0 (Windows NT 10.0; Win64; x64) AppleWebKit/537.36 (KHTML, like Gecko) Chrome/101.0.4951.54 Safari/537.36 Edg/101.0.1210.39" etag="RsnmMh0Q9HePt48tIptJ" version="18.0.2" type="github">
  <diagram id="ptObz6Ka3BbNxjtAWZyo" name="Page-1">
    <mxGraphModel dx="981" dy="542" grid="0" gridSize="10" guides="1" tooltips="1" connect="1" arrows="1" fold="1" page="1" pageScale="1" pageWidth="1200" pageHeight="1920" math="0" shadow="0">
      <root>
        <mxCell id="0" />
        <mxCell id="1" parent="0" />
        <mxCell id="jOYvyM4cM1HQlEKBaCWQ-5" value="Peering" style="edgeStyle=orthogonalEdgeStyle;rounded=0;orthogonalLoop=1;jettySize=auto;html=1;entryX=0;entryY=0.5;entryDx=0;entryDy=0;endArrow=classic;endFill=1;startArrow=classic;startFill=1;" edge="1" parent="1" source="jOYvyM4cM1HQlEKBaCWQ-1" target="jOYvyM4cM1HQlEKBaCWQ-2">
          <mxGeometry relative="1" as="geometry" />
        </mxCell>
        <mxCell id="jOYvyM4cM1HQlEKBaCWQ-1" value="" style="rounded=0;whiteSpace=wrap;html=1;" vertex="1" parent="1">
          <mxGeometry x="260" y="250" width="290" height="170" as="geometry" />
        </mxCell>
        <mxCell id="jOYvyM4cM1HQlEKBaCWQ-2" value="" style="rounded=0;whiteSpace=wrap;html=1;" vertex="1" parent="1">
          <mxGeometry x="630" y="250" width="290" height="170" as="geometry" />
        </mxCell>
        <mxCell id="jOYvyM4cM1HQlEKBaCWQ-3" value="VNET1&lt;br&gt;10.50.0.0/19" style="aspect=fixed;html=1;points=[];align=center;image;fontSize=12;image=img/lib/azure2/networking/Virtual_Networks.svg;" vertex="1" parent="1">
          <mxGeometry x="230" y="230" width="67" height="40" as="geometry" />
        </mxCell>
        <mxCell id="jOYvyM4cM1HQlEKBaCWQ-4" value="VNET2&lt;br&gt;10.50.50.0/24" style="aspect=fixed;html=1;points=[];align=center;image;fontSize=12;image=img/lib/azure2/networking/Virtual_Networks.svg;" vertex="1" parent="1">
          <mxGeometry x="600" y="230" width="67" height="40" as="geometry" />
        </mxCell>
        <mxCell id="jOYvyM4cM1HQlEKBaCWQ-11" value="UDR" style="edgeStyle=orthogonalEdgeStyle;rounded=0;orthogonalLoop=1;jettySize=auto;html=1;entryX=0.598;entryY=1.012;entryDx=0;entryDy=0;entryPerimeter=0;startArrow=none;startFill=0;endArrow=classic;endFill=1;" edge="1" parent="1" source="jOYvyM4cM1HQlEKBaCWQ-6" target="jOYvyM4cM1HQlEKBaCWQ-10">
          <mxGeometry relative="1" as="geometry" />
        </mxCell>
        <mxCell id="jOYvyM4cM1HQlEKBaCWQ-6" value="VM Subnet&lt;br&gt;10.50.50.176/28" style="rounded=0;whiteSpace=wrap;html=1;" vertex="1" parent="1">
          <mxGeometry x="720" y="280" width="130" height="70" as="geometry" />
        </mxCell>
        <mxCell id="jOYvyM4cM1HQlEKBaCWQ-9" value="Fortigate Subnet&lt;br&gt;10.50.2.0/24" style="rounded=0;whiteSpace=wrap;html=1;" vertex="1" parent="1">
          <mxGeometry x="340" y="280" width="130" height="70" as="geometry" />
        </mxCell>
        <mxCell id="jOYvyM4cM1HQlEKBaCWQ-10" value="" style="shape=image;verticalLabelPosition=bottom;labelBackgroundColor=default;verticalAlign=top;aspect=fixed;imageAspect=0;image=data:image/png,iVBORw0KGgoAAAANSUhEUgAAA0YAAACcCAYAAABbabvMAAAgAElEQVR4nOzdd5xcV33w/88t08vubO99VyutercsG/desDHFxv45JIFQX/wgCXnC70lCegUSSHjIQ0yLDQQX3C03FavX1WpX23vf2d3pfW75/TGSLNkmkUDGRef9jw1z55x7566/537PPUXSNM1EEARBEARBEAThEiaZpikSI0EQBEEQBEEQLmnyO30CgiAIgiAIgiAI7zSRGAmCIAiCIAiCcMkTiZEgCIIgCIIgCJc8kRgJgiAIgiAIgnDJE4mRIAiCIAiCIAiXPJEYCYIgCIIgCIJwyROJkSAIgiAIgiAIl7zfSGJ09k5JYtMkQRCE94Y3x2sRwQVBEITz915rNdQLOdg0TZBMTB1MCRRJwgQkSTr3QD1NLJliPqpRVujFYbWc+UgyM0QWA0TDSfKra3FYZOQ3fP3dxjRNJEkiEZ4nGIwTzzgpLrag2h3Iig2X9V1+AYIg/NpOxwGA+fl50uk0BQUFOJ3O30TtpzqYTAwTJCRkWcr9f5IJBhimiSxJIEtcSEQyMcHMdWBJ0rnxXDIzxCNhgotJfJUVOKzqxY3Xpnmq0TQxTQlJknhjcyIIgvBGhmGQSCSIxWJ4vd7fUByGXKwyMQ2QFPlMrDVN80w8kyT5wuJYLpCfecY+/c7idBmGoZMIzJKQPVhdXvJtF+9qXj8F49RpnGo/TBPDMDAMA1NWsKgyF9ayvE4yNUKLYYKxNEWVZTgtMspZn8eC02Q0E9VTitum5Nqxd5Dyta997Wvnf7iJHl8kEIkSTxs4HA4k3pwYmYkp2k8c5q+f6mR1QxXFea7XP5Sm2PPTH/Pwv/2MkitupSDPgoV3P0nSaX/1Zzzy7z/j4acTFBT4CSlWFjUfVV4xIlEQ3u8kScIwDDRN46GHHuKll16ipKSEoqIiVPWC+ph+ldrBNMjEwwQCYeIpA5vDjiKDpKdJxuLMzaexOa1YlAuLR6aWJZNOEs+CIsso52Q+E3S9+gwP/ct/Ub7ucnyFzosbryUw9Qzx0CJZUwXVgirCqSAI/4NAIMCxY8d47rnnsNvtVFdX/4ZqlsikYkQW5klJVhRZORMzk5EgqayOIasXHIdBJx4Okk5nkKwOFOn1xCibSnL059/glWkr864GlhVc3CsCMDIxkskksYyE3SKTiIUIBhYJhqNEYyl0SUX5lePzPC/+/AX+7aFXKdu6hWKPytm53dFn/oGjx/YQKthMZb4N9R1+W3JBrbmRidD36I94djgILet48EN3UOJQ35RDSk47FgWymp7LgM9hR5VNsulMrgf21zv/t5TLvV//569LkiTQu5mP6vhaNvOPd9yGS5kjrNhRHOdzJoIgvB8kEgmefPJJhoeHyWazHDhwAIBly5bhcrkwT/Wy6Xou9tlsF69rz9BTzB17ih8+eZSAs4X7PvMpVlfasaYn6Xyti399LMXv/+VNrKrJv6Coo4cmGBvq5DibuHpFOSXntAompqahZTUUq4P/Ntz9irKRKV7612/jvfYTLN+6kvK3oQ5BEN4/jh49yvHjx1lYWCCVSrFv3z5isRgf+MAHsFqtAGc6sSRJQlEUZPni9bjMDRzk6R98n6GaB7jrtsu4sjkfQ9fo2/4Es45qCldsZWOV+/wLlCQgxO6Hv0vSVcXlv/1blJ5zgImpa2gGSG9TH1xyZB/to2EGlVXcu7Wawy+/TOfQGK7mJpS5UaYz1VS0ruEjNzbj4AKfbCUHiiKRzWYx3uJji2Rg6hoGubdwF90FPopfwE+cIROZZ1tPiplIiPKqeXpmEuTVuHFYZPRUjMXR4xzonCZrpJjP6uiSgmSxgBZiqqeL106M4Su2MDgawOJ0ICsKyaleZmbG6VmQiM7PsuKyyylwwNTxffQHVAqXrGPp0mZq3FliE1109Qww5AeLr5Wrr2zAiIwy0NXF6IJBfvMmVrRUUevLPYxIaMz2dzM2OIJc1Yh/tI+kbqewYTWbl1eiT3cxNT3NWFwi7A/TtmkLFT4rCz37ODoaQilaxtKWJprzgmx75hdse22QjGsZNYEETakBot5mEgkn6a5D6PWbqClxYVmc5IW9k6y8fBUNlT7ehjeegiC8A0ZGRti1axcWi4XS0lJkWaaiooLDhw+jaRpr1qzBbreTTqfp7+8nm82yYcOGi3cChkFyYYyh0ByDiy5aDx1n+e2bsUppQv5Z2ttjRFI6EiaJ2V727T3KdMJJ7fLVrGwuwb5wlMPjdgqqm1ha42H46F4oLWWqp52jzz9Ph9KFv3cr125ZQWtzYW40ADKyqiJlkwwdfJ6+w1asTi8rN26ipsCJnJhnYriP9s5BIoaHymVraFvRQJklRu9z2wkZJpkCHxODQ+TVr6JtSQv1pe4zwxK1yCz9h3fy4mt7Mfz5DI+OsqEyRTB/E0sbqqhwJliYHqU3XECpLYJLjjMcVJEXB/AnLKilzVx5WRteBdKLY4z2dnJ8OIi9chmtS5poqcyDs4ZACoLw3qXrOgsLCwwMDBCPx6mvrycajWK1WkmlUnR0dLBy5UpsNhuJRIKJiQlcLheFhYW4XK7/uYLzFE9FGRvvxT/1OF01edTWbKFWhejMOPMeB2raADPDQv9ROnpGmUk7qWlbx4bmQhZGBhgcX6Tq8qtpZJr+/hmODURpLZxmx97dTMSLmLC0cPeHN1Bht5waciYhqRasepiZ7mO8eLiXBc9SVi1vZHmVF8w0Yx0H6BkcYz7joqS+jfUrG8mTIszPTNHrB2dygkA0RcJWweatmyhxyVjOCot6Yp7g/DzjSgOmoTE3scB8IENVQx0lPo3JXxxheGqOiU3N1OeBVQL0JJnFYQ4c62NsNoQ1v5zlG66ksdSFnSgzo4McOHwSu9PC0Z4pJMWKhISVFPP9xznUMUTc3URwNIjqKUA2NZIzXYz4o4xNhTC0NPWbrqXI9LM4fJL24QjO6uW0LWumscSOFhrn4JEORqbDOItrWL/5cvLi/YwO9NM9mQbvEjZvWUJdseuCErnzT4xSMSL+aU4WbGRL6yxNFTaO9MywoqwBh0UiPDvAgRee4pmjsyh5eTgqKslolUhoRMeG2PvK0zx5aJKqxhr0mQVQFJAUEgM7OLr/ML8YLcYRnUJyOsl3mHS8so2eRRV3f5RozMC7Jo8j255k55EeBiKFeMs1WlskJrp3s+2ZV1nMeKhMlFNQXHomMQKd8fbdvPDoc8jXP0C4dw+BUJaCthiVVR9EPrmTw0ePsTNYihoJY8/LI1lgof2VlzkwEsDIHyMcXI9zlZtX9vTR0z2IVGLjyd1D3CTvJ9vsIuh0Ez32PH1THtY1eSkN9vCTp0ZxNtRTW+m7gFshCMK72czMDJ2dnXz2s5/FarWSyWS47LLLePzxx1lcXCQej59JjHp6eojH4xc3MQJkScXbtg5XyE2k5wBD61tZlidjsdlwuTJYZZ1oqI/Ova/wyiuHmIxaaQ5qyNpSlmeP8Mq2BFWrYuRZ6tjx3PMUX7GOxYlJeo4PM2kLIGd9VJZVsaS5MDfKXQJMk0wyxvjJI/SMTZK0lxF0VPLhjVWEx3o5sONFdh/uZVF3Uz4eJ2ZYuHaVxL7/+38Yx4Gx9XJGDu3FVjtP/DYLlaUrzgzHS0SDzIwOMp0wCXb24UiNY68LsgeDB+65mYKyEMPtr7IzdhmrnYO4UmM8NZBPXaqdgdkMmfL1WEsquKzCZLrnOK++8grtg0EsFePEMtfh9W2g1PGrjowXBOHdxDAMAoEAbreb0tJSmpub6e7upqamBlmW6e3tZenSpdhsNpLJJMPDwxQWFuJ0Oi9qYiQ583BV1bJFnyc62sXB442Uri1Asdqw2mwoZpZkwM/xg7vZceAk40k3VeNJCtxXMt/dye5dR/A5W7lWPsyhw2M82QF3r/AzHUszMD6HuvswV35wDSVnEqPcvKVMbJF5/wLTXS+zL9jMRz7xMarKlmKOHmPvzhc50DHMfNZJSfMc9rx8WuyzDHfs45H9Gstc4ywuLjBpVJL0VHHtygrKPa/P9JFkC6rFik1RTs01dVNcXsT61euooY65Z7fT0T/HXMygxiODAmgJMvN9HD24iyMnelHzqpjWS7nvxlVkwyN0vPY8T7/Uibe0goU5E408JFMnOHqS9l3beGJnH3rVZvISIeqXlIGhEZvYz67XpjjSF6TcJ2OW1DIZGGTw0E6ODEewVY6TUW7DYRaS7XiG558/SvdkgrrW1ZQ2tNCz73mOHTnCiUUP1oIMNUurqC52XdDwuPM+NhYMMT0yxrr1G9hcU056Zoqe7V0sXFZLkWWAia79PN3u4+Nf/jytvjnajx6hvwOMyBR7+0bYFyjhy3/3R7TIA7zw00d56dA8JiBLIDnLqF17PV+9byMDr/6Cg2NpnPd+g2+2JXnhz77N4PeP4v7Mvfzbz0dZe/uH+OqHb6MyPE003M6+YZNE8/18/dPXkEkpeBznjoBXVQWrKw/Tt5xP/tEt6D0vsn/Xa3QMbqImnsGSV0V1/a186a6VpI89ybZDs7SXf4K/+EIL/hf+is6BRzlY/1f86R9+jJd3DDOXreV3HryS7scP0J7KUlRXyDW338T+H7Tz9P4wq9eV8sHP3cf6JRX8pqYCCoLw9lu/fj2rVq3C5XLR0dFBIpEA4FOf+hSKoiBJ0pk3IRaLBYvl4s+eNE0d2dVKldPLWmU/P9o1xO1L0yiqApjYDT/PPfIS+/ZMcOdffZvNvl5e29bJ4VdPsPaLn2BT/09ZmHuNXfuGGbK0sbH2Gq6oH6FGSbPffgO3b17C2vp8TF4ffaBrOprspPG63+Fm7wRDvb1sP3ySmxqi7Ds2SG+iji99/Q8p1np49P8+x67v9FD395/BsNpxeBtouvpjfOWT9/PEQz9mcaSbro0rWOXItaveygbWXH0Ta3+xl6J77ueaOzZTHdhB37+dJLOwGr9LYca/yIbLyqlIh5jqnkKXirj+03/LRxd3s3tPBz/4wX5c63poX3TSW3Yff/8HbYw88/f0jO9jb08Dd60pEiOaBeF9QFVVmpqaaGlpIZFIMDs7SzabxW63U1dXR01NzZmhdJIkoarqmdh88ZjoOijOUrZ+5F5OHOrEf/BJhhvuJ2OCqlpIRxcZH9vFsexSrvr0R1jlDvPs17/Lrp7VrGlZwZ0s8Hc/+i/6bYssuWwj/+9fXscWRz+Bzn4aaxq448++SJsLrKdqzM3lN/EvyPiWb+LBezaQ97k/Jj3ayp6DGWzPfpP+yo9y2x98kTXueQ4/+xOOdg2RLjPJU1S0tMma+77AGt803Xt38o2fvEyZ+ybKV1X80quUpNyCEhqgRSYYS7pZcJXh88qcHu2mSy6UonV84su38ZnYcfqP7+X723cQ2ZTHcHcv3X0RHvyTr7Mib5HnH93Oc/vmUPQQz/38BWaidj7wxW9wayNs//EYU5EMALKiEpcKadl6NZ+9bz3Jw4/wrR6TWO0n+PofNDL0xJ/RN3mIZ8Z9eHY8TP7WP+H3P72OreUJ5maG+NIT/fiWXcVXvvoAlaE57BXutxy+998578QokQjR3f4CO/teZg8aejzNTCyfvo9cT15gmMDCINnGm6ioqqDcpzA+VYmzJ0wmNklGB3dREyurC3HISUoKfOQb/twfmCnhcDgo8ZXgcbuIJObpObiL4f2H6fFqjLWfoKRpHcvdjXzmzmr29r3Md787x5XX3crNrWu5augFntv+NH/1D4PccvfdbFrRcM55G4aJxWKluLGekjI3cqCY6gIr07E0qTS4HB7KiovwOOzMLkYZbt/PiYUO/vyYg/hEF7bSJVyeyuD12HC7nYSTdjwuK6osYegaqiOPgvpN3FzxHM+d8NM9exNfuqucEs/bPRlbEITfJKvVek6jezoJeqt5RG+eW3nx6IZEYW0d61tlDv3tD5gIVpJ01IBpoodmmApNs+fkQQJ/91UelwIEUy7Kl1yBLvvYsK6Jxx49xGsHern+975JRW0JjplxHC4bDocXj8f5+qpEuQtBUmQcbhclpUWUF+lMTk4z5Q8QnY5jShL5ZU00luQBS6lxP89sYIRAVCNjgCc/j/KqStz5UOC2ETEN5lNg2jmVrCjYbDaskoTLZcNZXIDLsYna6iNY7RPML9hYGEmx8UYX+TELs1YbxbW1FBcXUeIup6p3kOi+KfqYYGzez7HZPfxJVx7BkV58S65k69L0mRWfBEF47zvd4WSxWHKrw501VNZut5857uw5RRd9KK0JkqSiFDSxdnmUnsEJntrZx9JkFovNipaKMdd/hI49UQ7ueIpia5LZwTEa1ofYsGEjjc4Qm575M47bt+IsbuCqSgdkHKiygt1mxZMPinROdZiGia+8nKqWZoqK/VSoMB0OcHJwFDr9VF/ZSmNzKcW6RF1tOQdn0gStaYocdvKqqikvLSW/zKBytJjkwjzJeBqNX5YEyDhci/Tt2M2hT+7Amk7hqr+CTR+6hiYXZ4bgKYqJTYrw2ou76Ow4wNjsIkHncozUOPFohKRZSGtNBYUeO/m+AlRlHj0RoH/Khb24nI0byykEKksdpEIGhpm7TrcvD1tZIS6rylDPLHNHu+mK7eb/O+ohNNpJwao6Lrt8OVs/di8PvfAcP+zq5cTWq/no1W185u4Gth85yHe+FWHrDfdwQ7WK9wJv73k+vWeIheaZ9Kssq60GmxM9PEdDcIKevilKi5Moqko6HkXXDcxkkmQ0TNoAZAVD18gk4yQNcKSjJBMJ0mfKllBlC3aLBU3TwQBFtWGzFlBU5qHi6hJK65ZSWZhH5c23IPv28uqxaZ55ai9LKq9l2brNaMkkr3WOsr1zAJevgKsafWeVDrppkkhlMUzIpuKEo2lUNTcZT1XAabWg6XruRlusyHYPBSVl1FYU46tooqnYhWwaZDUtt6ShYWKYJsgSpqGhpaPEpDxQ4zjkFImMiW6e+4ctCML7h6Zp6Lp+ZjlTwzAIh8OEQiHy8/PPNN66rjMwMIDX66Wi4pf3zp0/E8PQUF355DcWcu3KXXQHJ2gfSCJJRUiqBVWWsMkqnoJiyr2V1LkLqWlpwmqBxXgKRZEpyLOQjkbQsxWAga7pJFJZ9LfoWjvd82q3qFhUC5qpkMjoSLIdU4+QSeXiuY0ECV0iaXHjsEjIEmR0yOomoJNMZzEVA9cbWh3DNNA1g0w2S8YA1V5CS20xsbk+RmMe5p1LKXC7cGRA0w2SqUwuzUnEiceTWL3VOJw2VNWCxe6guLSairJSyutW0VTiFPOLBOF94uz/lk8nRafjMOSG2s3NzeF2u9E0Dci9ZYrH42cWxsnLyzvTwfWry3V8aYaV5taVZDJZDry6nfawn4oSnZoSGdVmQ7Vm8boKqavMp662herWUoqUKMl4jLSjFNU0MLNJkoADAyOro2X13CILb6jPNA2cXifuPDuyJGNVLGT13FH5LolkPEEmDcgGyWQKu03BZrdgGAbpVDL31iSVJhKKgs2BxaKcs2T2uVdmYhgyFpuLwooK3DhYec1lbNzUiOPMl3RCkwMce+oJRq2VyA4v+c4QIUUCSQZDR9dTpDQTUkmyqSSGboAkoZDFyGRIJgF7kmg8SyxtoUzK1W+zWbBaVDA0VKuCrKpYbG6KK2upKC+jormFppoqXJ5b2LLRwqs7j9P1aoQly77AsiuvR/K42HZwgmeffI3aklsoWVH2ltf6y5xfYhTuYGFmjKj3aj7zpXupLHJAaIDRXf/BP3a0M7c+n4ayVlwvHKKvq4aMe46JiWni2Qqs7io81gDZhX5eO3qSJvqZ8C8QP53Nn17Fycjtz1FRXs3ydTZKKzdz1+pSHNEsiq5htwfoT9bQvMGCYXbwzz8+Qd9QM/aVS2jebMfn2ca/jEUYnQvB2YmRIqNnMkwN99PvthPrHWM4bGNdkQdXQCUST6EbBoakUF5TQcua9Uwml3DPzSsoc0WQFRsOXzFqQkE3DEzj9c2qFFkhHQsycXw3h7Ib8TTMsawkzYsHBnFuaaCu0P7m31IQhPc8h8OB2+0+s0y3pmnMzMxw4sQJVq9ejWEYZLNZhoeHOXToEK2trRchMTq12ZCpk81IIBWy6XcfZO6Rh/Dv7gTpGpT8Spora7l2TYq1H7yX1TVunJIVWQIlOcyBY+N4Slu5a3Mxr+56gfE6L035bixWO8GJQSbGfNR6q7A7Tu2jcbpm08AwcrHaNHUURcZetgzPyFGSo30c7GymONnFqOZGa7uMSp+VHlVifnGBsd5OhsNxxqMa7kIX9W7O2gtJRlbtFPrshOZmGRtJUFcl01jdxPbdO+iKFVG87n5cbjvWsEkmnWZhaoyhvgKGRgfom8vQuHkJK+oypIeqiIcr+diHNuOxxFBtbhxun9gXSRDeh0532DgcjjNx2DRNZmdnz3ljr2ka/f39pNNpamtrcbsvYLW4XyK3ZZGBoWewF9ZQV7fIOsdLPHF4hlR9jCWr8ihv3cyKtE5NUyuXt9WhLUTwLK0iNbaf9kMdjFc/QE3sMKnpXrZ1tXB7sw1fvoNgIs5If4Dqtnw8Z6+NfSoJ1LXT8VhHkxyUVtSwcWsrTw11cOKgglaQoGciQvVqH1UFaTKjg0RmAowPdWMYo3QMzlO1bCtFhZ63SL5MJExMTNJxH/XLb+KOLz9AA29FJzg9xK7HniXvt/+OK25pRp06wvdeToG1Eq9vFpd8kkPtHcQ9i0zNLJDWQXb4WF5vMjo7yu6XjuBsNBiaDrMol9CSO43ctWkGyFZqVjXRsODBIddy390bcUohHB438ZhKz/E4yzbfCKFZju07xsDgIKmqGlpWfYBbLB3s/+cOZhe2kKAMzwXc3/NKjPzHtjPeN4JW/0lU66m8y+2jdNkmLM+/RmTpB/GtupZ7Nrfzw2//Cd6GNsrb1uB16Fi95WxdmyYy1M53/+jLtF13Bfa4gyolg2RyzgaxuinRctXVZPVn+OmPvsLnv5HF1nInt91yDffkZXj1W//Mno4JlLpNfOBzD7Km2M/u7/05j287hlq+jHs+ewPXr659w9krKFKavOgJvvNXL5G1VbDxrt9lbXMpsWmVyYXcH4KhmXhW38gW2Ur04e/zF5+fJupt48qb7+b3HmggX5KQkV7vsZBkVNVCIBDh5X1HaLvh91hTt5p050Ee+c4vqC+9n+LCWi7edD9BEN4t1q1bRyaTwevNvaS32+0UFhZimibbt28nnU6TSqV45JFHuOaaa2hubr4o9ZrS6U1QT73acTWxtLmNtXVBJrsl4lIJtzxwO40lBl//xy/wzYUsy6+9jzuu20Db4sP0BRto2fxB1q3yMPbaX9I/M4qzuIXy6joSP/kO3zvez/jdH+LBD7acaRxOj0TLNZe5+CdJCoqzkuuv0DACj/Ltr3wCv6WFG+75OJ/68LVU2KewKSpKdJjuV37IQ7uPsfK23+ZDa7dQKZ8qEwAFh6+K6z60mq8//DR90xHy//dvs6qpnvknXyYYT3DzplqcNkhpJh4nVLmDPPY3X2HaKKfqijv5wr0rqXasxOt8luyTP+VLv/sN9MK13Hb3PXzs7go877l91wVB+J+oqkppaSkul+tMHJYkiebmZp577jlGRkZYtWoV/f397Nu3D6fTyV/8xV/gcPy6mw7kNmGVpNzrjbQBvvpGbn/wHo7v+zes4RBWbxE1VVezrv97PP7Qj/n2vIPqtbfxx5+7nskuP7u6s9z1B9exLJDlmad6eeTbz7Pum3dz+a3LmXhkD9/6029R8OM/ZHWe68wWCSYyZ7qqTBNJljDSWbzVbaza/L+Y/dH/4YlvPcz3jDLW3v5b/PbyJVQbQ3RNyVTUqhz54d/wWEgh3nwdf/zlq1lScu7vYEoS0uk6TBNkE1Mz0YEsYDm9A/gZVioaWvngfZv4m8e+zejgUla0NZAnp0Dz0rZmPZHpAf71b79I+YqtxMNWbE43ulrInQ/cxv7Hf8r3vvO/Obj2Y7QoWRoaFQyD3FBuSQJTByy4V93FPeHH2Pb0I3z+t/4Js2g9937yPi6vtzG14+/5569PEfKt4fJrf48bmi08/h9f4zsHesiWrOCKz36ajSvrLigpApDM8xgMn5ztZiGSJOJooanChU2RwcxCKkhX7xSekmrKSvJIzPTQMzKP7C7AU1RCIqOzrLYcF0nmp8bpGpglr7ICm2GgZLKUtq3CFhsnFssQs1ZQW+pCUUwSgSlG+/uZjmhIeTVUV1ZQV6AxcLKb2WASNb+M6uYllCsRpkZHGJ0OoXqKWLKshWKf+6xsL82Rx37Ajm17KLz/TygzFilwuSiub6WuxEZ2fpRQIkvWVUlFgR1FltESAeaGexiYjZFRfZRW1tLSWIJDm2d6Nk7adFJXU0posp+Ikk9adiD5B3HVNlPgsaEt+jneHaSurZ7SItd7YvNaQRAujKZpGIaBqqqnEpXcHg3T09Ps27ePPXv2oOs6t9xyC5s3b6akpOTXrtPQsyTmhhhOuVHcRbSV5N5IJwMzTE/MMxXxsHxdDQVOg0xomo4TAwQSOvkVDVSXF+FNDTGeKCSvqJLyfIWp/g4MXw15vnzsqUV6uk6SkEopqaqmscabm/BrxgnN+ZmajFC1dBkua5rAYoDRRVjRUolDSrIwNU7v4BhxpYDa5iUsqcxHYpqHP/Z5FvPrqbzvAdwJP+VNy6ipKMfnVDi7jTV1jUxgiK6+eXR3OY3LG3GMb+frP+0kbK/jf335TookCPa8xNHObg4nl7GlzMTuLcZZWkNbQxEykI34mRsfpG86gmErorq2hvqaEqySWK5bEN5vTg+lMwwDWZaRZfnMm6KhoSEOHTpER0cHLpeLpqYmVq1aRVtb28WomUh4gZmpGUprmnC7nKiSCXqEniN94C2itL6WAqtJaGqA4fFp5hMSzsIaVrSUkgiFmQ/EqFvRijc9z/hYgImgldXr67FERxkfmWEy4mD5luUUWFUUwNA1ghP9hNUS7AVFlNsTTB3rIOYqxV3bQJXTZL+qj/0AACAASURBVHG0i6GxGcKGk5L6pbTWFmLOnuDYsSM8OVTEjU0WfD4faU8la5dXv2krmWxoikA8QwQfDaUuZsdmSJkSpU3VOIG32l3IzCZJzQ/TMbSA6s3HV5BPJpyiur4el90gODfByZ5hbPnlIFlRUKhd1kyRPUlwYoS+wRmyvgaKbEHyPC4s3lrcup/5mIxk9VJdmkt4s+FpZsZHGJiNYdoKqWtqoNQrExrsYtgfw3BVUF5TRWORzFBvN9P+CLiLqW1dRrXPgfUCt0Y6j8ToLSauvilzvHgu7jTZNAd/8l1efekgNX/8E+5cwn+bOV70y3obfydBEN6dent7OXjwIKZpcuutt1JUVPQbfTC/mDH0VytLB2b5/h2/Q7zxSi7786+y/nxnv5ohFk5s54V9/Uxbl7N01XruWF8GwGLXcxw60c9h+Wq+dM9qzlnfRqyvIAjCWQYHB9m5cyc+n4/LL7+csrKyi1LuWz3WvW3h59csOD5xhKNHj/PYcCNffvAK6gov5qJg752ge6Fneh6/0lsU9zY28he7ZJs7j/ziYpxkSGWseP6bOXcX/bJEUiQIl5zW1lZaW1vfsfovZtT51cqSAAV3aSmSz42UBcM0kc8jHqYmOhk58GOeaW/i7o9WcvP61x9mZKsTp8tDPgqZZBo8Z/V5ilArCMJZmpqaaGpquujlvlUYe9vCz69ZsKTasDs9FOZZMTNJ/vtXAxdc+kUs6+11oWd6XkPp3rtMsskk6UwWxeXFqkhipThBEIS3lQkYJEMRTMWC6nJjOc/hbIaWya3ymVWxOxw4bNYzjZqupdGzGhnJitOqIssimAuCIPwypp5F07KkNBWHXUVVLnBM2SXqfZ4YCYIgCO8N752hGYIgCML7k0gfBUEQhHcBkRQJgiAI7yyRGAmCIAiCIAiCcMkTiZEgCIIgCIIgCJc8kRgJgiAIgiAIgnDJE4mRIAiCIAiCIAiXPFUsSicIgiAIgiAIwqVOjcdj7/Q5CIIgCIIgCIIgvKNUi8XyTp+DIAiCIAiCIAjCO0ps8CoIgiAIgiAIwiVPLL4gCIIgCIIgCMIlTyRGgiAIgiAIgiBc8kRiJAiCIAiCIAjCJU8kRoIgCIIgCIIgXPJEYiQIgiAIgiAIwiVPJEaCIAiCIAiCIFzyRGIkCIIgCIIgCMIlTz3/Q01MXSejaYCMoqqosowJSBJgmpgSGJqGrhuYyFgsKrJ0+oDXyzF0HS2rYaBgsaoosvSGqkwwNDKajiGrKKqKRTr7YwPJNNElGcU0MU2NdNYAxYpFkd5cniAIwntYbrs5E8MwkSUJSZZzcRLQDRMkAwmNeCyLxWrFbred/W1M08Q0dEABWeZCQ6Rp6CQWI5gOOxanA9vb1aVmahhamnDYxOGxokgayWgKuzcP1aKInjxBEN4lTPSsjomEpCgosglImLqOrmlopoRqUZHfEG9N08AwdDRNz4VwWUaWVSyKhCSBYehkMxqmpGKxKG96njUMA0PLoBmgyCqyqiKfCoxvDOumYWBiYEoyMhKSJJ6Nz4fyta997Wvnc6CRzZAMLzIyMsZCOIUhWXG7ba/fcAkkI0twepKp8SkWIkkUpwerRUE+52ZoRBdmGR8YZWYhhdXrxG61nHtD9QSZ0CQDI5NMxiUM1Um+/awmUU+hRecI605kLUE6PE3f8BRzKRWLzYbbqvy6v4sgCMK7hoSJnk2zGI4gyTJWi+X0B0SicRLJAJI8y/Zn29F1hdKKonO+rWfiRGdHSclOJIsVywVmGNlkkD1ff4RBzY7RUEHJ2xViTT/JqcM88r1hnMUSRmacnQ+/TH5zKy6PHRHZBUF4d9AIjY6ykNRJWxy4rRIgkQouMD8+wbh/kaxqx2qzYVXOesLNxokFZxganWRubpaFhEZCceGzq8hSkpB/muGhKeYXTKwuG077ue8v0okIcxO9TE7PEc7ISFYnLqv8pqQIIBMLEw0HSUl2VFVBEYnReTnvxCgwN8SJvduIGg6mBsfwzy2glFXisaooEuiZJJGpIY50jBNYDBKOhnitf4Gqch95jtO9lzr+g4fp7ptgIK4hzXSyY8okILloLrTnDjHDdJ/s4z+3deBwq4x17GRqZBhXzUo8VpAlSM1NMPHiE8x7SzncN0X7iT5Um8TQoZcIxLMoJfX4rKbIjgVBeH+QdFLRIE/ubsfmdFDmyz/1tl6ip6+TqblpqmtXUFpWTnFpAVab9Zyvm4lpun/xdQIFq7EW+fBcYGjUM3EGXjxCqqqa/JYqyk5nKKb5hhEBvyYjQiY0xaH9aSqaamhc3kh5bQ2+Ih82VaRFgiC888L+aTp3PE9Xx04OLFoI2ypZVmxBj43TcXKQnuEpFDPOjl2TpFWVmkofMrk3Oln/ccZ6drBjthCLmcVqsYPLS5lHY/ixl+g9NsSiXSV64lVmDSvpvFJKHEou3menCcwO0dEfwTBMhsb7mFuYoaqyHossvSkUd7/yPNv/60USDW2UeJ3YVfHO/Xyc51C6eSLBGYbnVVa1VGLLRJkNz9E1GaCspRirVSWbSTA3O0hSLaS0pAg5GaR9fyfjbQ3k+zx4MMBIcWJqkZBupXZZJb5YlP0vdDK2qBFv2YITkBaHmFuYZVKt5tryMvIDRxhfHOHYUICiNh9eWxp/MMCzkwpblkwRSZosSAVsrKjANbOHvrlJDvYEqNvgu5BxgoIgCO9iEmCSGRpisricsgYoxYToMEH/AuGsimymSEU1LLKTdDrGyEA72myMrDWP2fkR2nfsIxV7lcsML94mF8HJk3iLm/F63CQTYQ5MZmirysObCDDU1cNUMoXuqaKuqZbGPBnFqqIo8rnD2SSJdMzPTO8BRhZNwlIxxZX1rG8tQ1o4yWwwwkQUIgthFFcBjY2N1JXlExoZJmiRCQeDRKYXiNlLaVu1lIZCFUmSc0NIVB0tlSLq13CXKIRnh5gYHmQ8bKBaymhubaC6wkHKP8ZCJM3U3CKhWBpHcQNrWqvxua2kIn5Gu9qZCiXQ8hoob1jO8tIkk0e7GBlbIJXno7ptDTUlLtyiwRAE4TzIqhWbw41XWiQQCWKGdcAk7J8kmkphyS+notxK976XmJm0Mri6nlY114mUCARZGJ8jnGdFcrgo9OWT75GR0pPsmkwSJ5+raitA7+Hk7CyKfZa2TdWn3ghJWOxeisryKMz3sBiaJLwwQSilY1Nl1DOJkUnMv4fhgRNMBDS80TSGYb5TP9d7zvk1BcE+ktEA0eKraGxpwlOR5VDvGLsmQ1xRV4DHqpJKJZkPTFDRso7mxips00OEXtzObDBNQRqW2kxIJei3uagoKWNz2xKggrVP/BOxkTRz2hbqVQiOjwIqq6+/kmV1YC/bTOHJcZ7qHSfbkgfaBDPJJEfrb+R6rY+m4nLym9pY1uSC4ssJvBLiWPswmfXrzvojEQRBeC9TsNpcbPZA92KSjjm4oUQjOrQdM1mBq7AR0gPsfH6WFevWUd2i8+oL30cd1kk56piWNEb9FiJHjlPatJK2sjo69z1K85ZP4HU3EFmc5Nvbg/zhLc20xsY49OxzHI0ECNmWsOXaayi5oRVDkt5yuEYyNM3JHT9j54jMcKqMplVbqKu9E2fPM7T3TfHKbBGpiUkUdwlbb7wNi3Ul/r27OOFwMTUzS7T9JBPuam6VrORvLMQhS7k5qrYw0/2TbPvXk9z59/8Pqclejm1/htfGDHStklvvvQuPr4pY7272DiQ40TfGXCCEtWQ17t/9CCvqXPhHTrBv26Mcn1gkW38LK/QGyhni+EsvsffIINGKWloXnVx/ZStLK5y/8bsqCMJ7j6egiJXX3oruGWZ4ykX81Dx7v38eV145dfUbaCgEdeBRjpjzdI5Ba2PuuxkjD1OppabQhsshY7FacSo65lQvJyqbKSprYcUSLyxxMPPECfTJMdhUnfuypRxfWTkbynL/MzRbyvh8hLRpYObeKYEJWjzEiYP7iNoUqj9wGR5VQTZFYnS+zi8xmp8hGgoQzHOhm4DVidWeR2pexzyVhRqZBKm5IdyNaWRAsZlULg/SKWVJJACbQTaTxmvGcRqpUwV7qFq+wKIEySSYHgj67aQTKkUeMA0grwLVrVG+mMCKydxsDBJpfmtDKfLIECkFXAW53lTyqik0MzQsRDAu/m8lCILwjlGsNpZeV8exfVFGj0yh3+Khb98u0hW3Ur6kGtMMo6oKsgKGLqFQxqYvPEDzsmXEBg6y79/3kL3xPlZt2USR7kdVrblFHABJlnFYFMy0Sf6SNVz71RXcny9z/L+eYTY2QXd8KVnjrZYxzWIraGDp3f/CtTWFLB79KaNDJxjy30x9GhRvPa1Nt/PAxnKC7c9wKBrhia4oW2VIUcHSq27g1k/oxAYe46XOYfYlY1y76nQtuUnNFrsFU89SvORK7qjewofz7XTufIi4N8DEXBGFikrE1shN993G6sIkBx7/T0aDMaZm53BPLdL84N9xa7GM3bAyNRPntZ3tFNx5P1/8SgOehSGe/NpPmCuG4oq1FL3p+gRBEN6CnkXTDYyzRhOHwgsk3fkYam5xnOKKKtRFF4FoBsjNC/VW11InQ2YuQPD4YU44G9Gq13OfOUqtvQKf59S0Ekqx5usgR966/sAeZiYWmM2WcoPbxulRctlYiJmuQ4x7b8JX76fSiDEvSYi86PydX2JkUZGtVjKmiikBhoampcjqGSQlV4RFsWC1e1GV3EIKpq6TiWXRsiayCmBBkRQkixNZtZwpOh3PkpZyLa4M2B0KqiFjqqdXu8tCNk3SsIGsEEqm0TJp2ordpGZtyJKCbJHAlEDKkM1miGctb74GQRCE9zBJsWCtX0/V3p8SnDjGyNxdvDZ/GUubW2kpkjETpw40QZZUrB43BYWFuADZ68RllTA8bhwuUKImsnxqFSNJRpYVZFlCslrRgmOMvvYyj49GGTw8QfnKdWw9M5DjjSwYqVnCfS/zwrNBJgeO4ykoYtMmQJKwe3wUlFfj9Tjw1pfROWxheiGLYdgpLS2hoqIIhxcca9dR0BmGxTCaJJ2p6PSipookk1gcoPPQAQ4PBJldGGfllU1cViaDpFKY76O4qBxfaYjGGoPjRorBqIRP9XJPXTH5p6cnZWPsnh6kvX+EXTYXaiLMwGAHV4evoMl8ywsUBEF4M/P0aqG5fwdQLBYUi3omjuipAFqmEA3lzJx3u7eICrsHZ3EClrk59PI8vT/ZT/JeO1mnHRTlVIG51emQz50vaqSCLI4c4ScDUFXexh2NldhPx3J0ooFxDh7qIX9TNR4shKeDhG0hErUF+Fzi2fh8nN9MrLxy7E4P9tAoigLZVJJMMkaxx0E6PE82rRHLythcJcTSEroOminREygjz65gJrP4/fNoVityNEU6buT+jsxJ+sJVTKcqcWppuiYjZKw6uqrR1Z/K3emJPsJTA1BZiKLNEk5miUheCuwKBQVWgokU4/547tjhbmJGFK2+QswvEgThfUYGSmgulynU+zm0pwN/2RV4KpfgQgNyayGYmKBIqHYLsp4FIJPOkk5nMUzzTIqTNhQk1QamRjoWIp3MEF+Ywz8zzcxCElkyMXSZbNbMrT56uuyzGJFx5sa7ORLQyUgShq6RTGaQJZCQMLMGeip3bvGYBkiUFVqQZY1gSieuAWhkp/2YVgV7vgfJNF9/4JBkTEPH9J+kZ3ySzgUTi0XBSCcwtHQuazJlPA5rrsdU13F5ZRRVQk+nSMWiLCReP99YVMOiZ8lmIalZcOQVsvqOq6mvL8epv203ThCE9ynzrKjocTrJGBBLZUHS6fMbZJEpc2jMjcySSCWJGjJpxU1RSQlFZSW4JYPgXBK1sAJ9cp7UhB+QINpFKq2Q0Z2Q9DMbTJBORokHJ+nzRzA8DSxftZyKCh+yBJFQgER0hnAiRliXsaUCpEKzTMwu4p/1E01mT7USwv/k/PKH/AbsjihFC0fwz9SSmAkST8usaCgmOdHLUChKWrXgzithYNqPU8lg02IM2FfysSILobkhXp0KcMu1KyhMJYnMznN0dpHa8AmGXRspK8kjL9bLv7+U5q5WFVnO0rn3EFP1begdfcwupKnaWoXsf4VYwk3cuRyrKmEtzid+cpLB6W7mmpaycOwkKfsSKle2nLPvkSAIwvtFVdt6pvwxOnZ10PDgFZQ3OIEokEtGcplPrqk+nQbJqoLD7SIcjxOLQgEKuuRmMRjClk0yNTJBMu4lMTPKnM9JqulOfmdLEe3eZ5nMqLkh03JujtHZoVVf7GZqcpjjlpv5yoPVyO0P0X2y+1TdJvHgInPmIMGGBjpO+NF8lWxc4USZjjMwPkXaU8BmNUXny9uJFNxB0dJqVKMrl1SZEsgKEgb67FF6o3VkG27jS1cVcfi5fyBRpJDVAEnCNEwM0wTTRDckdMVKhRzAEZ5i+9EJWGri1O0MT0pUldZTsOUqapqXsbIgjS7ZsChc8N5OgiBc4qTcSnASufF0hfk+hqfijA/1UWc4ORqopmRJJa2uKMeePkrjXWswLBYSsxEaa4rRJg8xbGSIXLUCb4WL8okDJP0xRjZuxNJ3CMO2Ao83H216HwcXVrDaM42enOdwsICPXpaHT4kRj6soVpXh/k4Uu4rizKdx7QpAIxqKEE+lScZTaPobu7WEX+b8EiO5hNLiWppt+/mHP/ocWfdarrrxdu6uy2dhOsp8xoqrtonmZavZ8R8/5L/+YwhPVRt3fvxB6krzODg1w/RCBE1xcsNtS/jFY0/z1U9+F2fVaj75yfu4eYWXwFAnA1Mpwps2sbX6BBz/a/78cyrqqo9z4213cFeNwfDPH4XyD9KwvBwkEwpXcktTD69t+w8+/0mFwg0f4a6bruTGZjW3oSFiZIQgCO8valETalUA3X2Cy6ss1NgBJExTwWpXURUJGRmr1Y506mnfU1DBlXfexR888gw9k1F+5+4ttBQV85N//yazITtFLVtwVVRSv6ISZfI4+372A1542EaZzcXKK6/AKktYHHZkq+WcYQaW+supDepU/emX+eNHSqlodbJm83JqJFBUC6o+weCRn/Hpnw5S3Hwtt33wCjbkWejGxxX507Tv2sn9/zJBds1H+P0ta9nYpJEct2B3gKIqyBLYPR7sq66jbd9jvPjIt/mtHxXStHYDayrqqFJ0ZNWCaj21EaIkI6sOJF1h6RWbaFiq8bOv/gF/Hpon77r7uOGjv8sNy6/mmX/9Md/76+PMF5SgNdzNFz++latbC9+J2ykIwnuQCUiqHbvFgqGYgExxywaKuh/n+f/8Tx5OOLn8nvtZvWI5+ZEAh6YWqTAk9MkuDj/yU/5hPECweAV33HQj//Tx9aiKyb0fHubp57fx+U/9BMuS2/nM/Su5qi5AasDPfDhFNDNLqH83254YZe9/WtAzKtXLL+O6T3wCR3ARd1E5xcUNbKluQlEt+IvdTAyPEipfSnm+AzGQ7vxIpnl+U7K0dJzQ5AAd/RMY9irqGpporvUQn5skZtqwevPx2TS6TxxnfDaExVPEijWrKHHKzPkDLMQyNDVUYZOiTPQPcLR7EtlbzeaNrZS4raRCfvaP6rQ0VlJpnSc0tJ+DQwZyzQZaaksoT3Xz3Z/vo3nd5Xzg8lWcWT8oOsLMaC9HxzRcNetY2lBGmVus1S4IwvtVlsXFAGOTC7QubcJptQFZdC3KzHgGT74Xh1tmZmac4pIqHA4nkpmF5Mz/z959R8l13Qee/75UOXdV5xwRGkQiQVIUk6JlWZYtWZblJOvIY60teXdnz/rsjmc9yxmP1545c3bHshWcbUmWLZEWlUiJFJgJEkROjdTonLu6K3Tlemn/KAAMosQGRZrk4Pf5h4eN9+679arOvfd3IwdOLOKJpdg+1I2bnefM2CU2qjrh5m7sWJQbOkK4GyucGjtPrqYQC4dp7ewg1tpG/eIMSlMTgdY40RcUsdXcMlMHDjNd9xFqDdPe004k0g6H/hvH1jTGPDcyqBZItI8wNNRPSq9y6v7vsNjaQdWj4SkUcLv2cstgilSgjlXMMDPjkuwMoCsWq5NF2kZ7KC2dZebieRbKXlp6h2hu6yDu19Ar62zYQYKRCGGjTiU9yZqnl1hTkEgty4VHn2WqVMLbs42BHdvp9lWZOXKcqZkFNrxBnNgQe7Z20N3kf8O+USHEW4vr2DjZCWarIWxfksEmA1DIzIwzNT7BYtVgcOcu+joS6OUiMxdWiG/pwC1nWLlwnqlsiWqok9HhPkY64o1EzWXmLo1zdHwDtXkHN23voC1cwcosMFFpIaVlqGWXOD6Rw3FtbFMhlGynd8cOfOVFDG+QQDxF6PKaSqtcoFgoYPoTxIIeDE3axpuxycDotRt7ebmUXjF1J09xZZZ7T8fYPdLErp7Aj71TRoqEENeNVzxk9bUuEZ9P78c9OvfYH3Go3E1x5Ff50ODzF1VzOc5997tM9N/K4M4BdgVfv5xeE6k4hBA/gVdbhLiue3VzhtcqTfHqbXKPgtfua3m5lF4xdTVKqG0Hn2jb3J3yIxJCXDd+bFAEr32J+Hx6P+7Rij9BkACmW8VxfajK8+udvJEIYa+KWnch+IL0XuOcXhOpOIQQP4FXW4T8qKDoJ0lTvHqbnkonhBBCbJZTzVNzNBw9QMBQrlb+ruNQL1ewdA+6x8ArszuEEEK8SUhgJIQQQgghhLjuSV+dEEIIIYQQ4rongZEQQgghhBDiuieBkRBCCCGEEOK6p2ez2Tc6D0IIIYQQQgjxhtJrtdobnQchhBBCCCGEeEMpjuPIrnRCCCGEEEKI65r+4w6WEkIIIYQQQojrgWy+IIQQQgghhLjuSWAkhBBCCCGEuO5JYCSEEEIIIYS47klgJIQQQgghhLjuSWAkhBBCCCGEuO5JYCSEEEIIIYS47klgJIQQQgghhLju/eSB0Y84HtZ9pUvcTZ4r+6KEXv6eazmhVk6zFUK81b1cOebYOeam58is51/h4mstBV0cu05udolMpkjp9SxEnTp2NcvyXJZyuUixkGbm9HlK5TrO6/hYIYT4ib1ie/jHF56v1FZ2N9tufsl94tro13Z5jYWDx8gGmwl299AX1UBRKMxOMHPxEtNVla4du+lvSxL2PH+XgkV9Y4kTT59iuRKka3SEnSNtL4nKHHDSnDt6jokZE098iLfd1UNIe8EBtIpCfnmKmYnzzGYd2kZvpb89QfwFz6oU1qhWy3hi3VRmDzI9M8ey2UTTtlvZ3uonYryKtySEEG8k18aslplbz5GMxYmEQo2KT1FYXklTMSu0toaxbAfXfkmFqIBT22Dt0gmctp2EY1GC19QlpuCYNWaePUl9cIiWSIjgNdYcm1fCKsxy+qDF0I0dJJs1LMvCcaSSF0K8mdRZOHSMjD9FsKuH/lijPVycn2T24gQTZZeu7bvo60gR9Vxpxyq4lTXSS1Mcv7BCrVZDiXeT6Bvlli4/mpJnZeoSJ08uU9P72H1zH50p/9UnKopCKZdmauwAsxmHYNtWegeG6Im/TIGsKJSyqxSy61jxHlIRH15NJolthnbPPffcs7lLbYprszz3xT/l8VWNfMsIO5s9QJWJJ/az/2v388DRs2S1JE2pFG0x75V6G8wMc2cO8rUv/iM/eHKCgjdM+55horioSuMH45glilMH+da993P//Se4OAUjt/SSCPvQuNIGMDl76CG+/517+f7TJ1kL9NKcStEeMa42EhYmTzFz6RyeWCdnHvkrHnrgmzxyepl5Xw/DbXGSr1+NLoQQrw/XpJRf4cEDhwkEQrQ0JXABRbE5fOQEF2cX6BsZxqt68Pt86B4Nx7ZwTRtFV8nOn+foV/8z86FRjGQHSY+D7dgv6KJ0sWwHBQUcB9syMS0L2wFdU7DqBU5+5SHWoyn8w520ai/ImuPg2jXqpontKLiAqioojo3jONiOhVk3G8GNoqACjuPg4mLbNqZpYTsKqqaiuDlq6fM89O11El0pOvtTaKqBLxRCVRwcy8Q0bRxHQVEUFAUc28F1XWzLom5ZuCioNP7dxcWp17FME9MBFA1FAdeqY9ZMLMdB0TQUxW18diGEeEU2xcwcz/3ln/Posko2OcjuFi9QZeKpR3jk3vv57uFTZJQkTakk7TH/1fawmT7F2NNf57P/fIDjhw9xNq+RjW3h9h4fauYMTz/8IP/01f0cOlIlOdhGd18THpfL5T2szp7m4a//GQ8+dozxnIERa2WkK/aigQbXdVEUhZnDj3H0qadZiQ3RGg0RMCQw2oxNRwmZhWXOHHgKfWcU1RumWrMBm/Xx55iPtjPy27/Px7tUvvz573IqZBDvuYteAExOP3OeUyervO+//gWfsU7x5FPzfP6PH+b//N/upiVoACUKqxP86Z9cYu9HPs1nf8uifPZhHn/6LNq+7Yz2RlHsKuapP2ex2kXPR/4LnxpWeOAb3yA37pBvuZOoBjjLrGZMpufrDCW+ySnvu9nxm5/id7srPPPNL1Fc/lWy8VFeLrgWQog3LVVH9/ipLZRZ7jbpAaKKC5U1PEqNmFcj7NZYKdTQQjq6r0Z6ZZLa9BoV1c9ieppzsxmqp8/jax6geyBIKT2DP9ZB0OejVi1zft2kJxUmWM2xeG6c6VIFLdVLb38H7bqCquuoqvpD86/t+gYbc8c4v2hS9nTR3NXHaKcfa2OOfLlCumCxNL+KN9FKX0837dEgheU0Tkght77G0mSaamKA0eEumkMaiqKi6Rqq5mDVK2yky/hjTdQ2FlmenWI6beILDdA/2EZrk0ptI41ZqzO7tMpKvkqsa5CtHUkCPgPXLLN24TATq1XsWA/tgyMMRF2yF8aYnk1TiCQZunEnSa+G5+XeuxBCvERmaZlzB55A2xYCI0Sl5gIO2ckjLIRbGPjk/86v9fn5py9+m7EjXhK9d9N3+d7yRgkj2MHP/d9/yJ0dOu0BMAGPO8vffuEMNf9e/uPf/Tbama9wcO0sTx0KgqE7OwAAIABJREFU8lP72hvdNtVJguEAN3/8r/iV9hDPPftdVmceYnn0N2gNedCvDkwpUD7I+MmjHDlU5cbbHFSJiTZt068qGG9icPc+tnXGiXoVbAdwYTWbxRPw0zU4RKy9l319K2j2EufmaVzglsmpOsVkC1u7YjT376InXqct/TiZkkMVoJqlmlthaXgPkb5+2jsH6bjhRtyNWezCOgC2Xefi0QUMJcjwtm7i8U66AkEc0yZdAxQF88x9FKur0LObICUKpg890UlzexKjuIxdq2K/Di9RCCFeXxqGx8euxCLLuQ2OpAHXpTr1GJV6FTvehWMucfbYJdIrJYqZdR792te5kCtQC0cI+Q0M1cbj8eD1BDCrRS6deYxsdg1wKBVW+caxORZXlsgX8pzKO4QiOgvPHefQ/iNM1zRsRUH9oUGVGrlchqcPFdG9YSqzzzK2/ytcWq9TvPQUR598kO8dPE8gGGT9zBhnxy4xXqiyMvYkf3/vkzxwbA0j4FI8/pc8ffoIZ9cdNLUx2qMbFTJLs5z4/nGKlQ0WFzIszxcJRsPMn/kGF8ePspgtkJt9jr/97rMcnVzDa9U4+cATnFsukc5MM3n0Yb55waasOdRrdc6dWmft/GMcXiwzp4Txm1m+99kDXBhbkzVMQohNCUab6N91M9u7EsR86uX2sMtadh3d56NjYJhYaw839a2jOiucmYUrw/O2abEyNcnj//Q5Pv+lBzk8sUbAY8DKNKstPbhbd9GTTNF549vwajXqazPPP1hrIpToYWSgmWgkQHtTgnhAR3FfuKTIQTGz3Hsow7QbY+eNA3gBHCnhNmvTgZE34KN9aAttgQB+RaERvrrkyyV0xSHs1cDV2TLoJRiApfTlEKRawfGqaMkAMdcBIiTjKtuSlyibNhZAuUBlI41nxxC+iA8IosS2E/LmMdQyAI5dZXJMQ6n6aQ6Da7skAs0YRoByvYprFThxNkfdDTI8Oogn1kWbZ421s0/yzNNHKCa344/E8UvULIR4C9INL6M72rGya8yMreDYFSaOHaZWtYm1deDYeZbm05Q2alj1OktL83gSTbT09tDekiAZ0mluSRFL+FAtk8zKJOVKBVwXq1rizGKOXNnG5/PiD3nx+XxUFmdZnphiqa5gubzMZDMFTTfw+yN4/QHU4jzlhZMs5W1KazPkshnyWhM9PT20Byuk19M8O1kkt7jEas7G9Kfo6e2kP1lm7dI8U+fToKqN6XBanUo+w/y5Rcp1B93rxe8LYBg6pY0pVjNp1gpV6rkVVnN1POFmetrjeNbGmF7f4NRUlqmZVYxUNx19A/S2NROiytlTp5kvlLHDQVSnxMVHfsD01DyFN+A7FUK89XgDPtoGt9AeChBQlaszkjeKBTTFIez1gKsx3O8j4IfltPX8vYlOUr076PVWsdOnOHZ6jEPjy+SXZ9G7W/B1twIuhEbxBTQC+vrzDzaiGN4oIb3GRnae9QJo/j5CPp0ry/HdWoXc1ARZs5lU7wijox0EPJ6ry1bEK7umMMEx61iOg+O6gAIu1Mvlxvzxy9do3iZ0I4imNhaK4dg4ZhmnVubKmmDd0PBFNFTl8qxuu06tmkc3zefDXlfD41fRLo8NupiU0irVwuW4W3ExNAND86DZFaz8AgeLt0NgG3uSLnmnmZHYBvmLT/KtBw/iDtyBL9KE9tKFyUII8Rag6F7CO99FczWHfm4/SxtrHLzooCkhtnSEARVd11Bw0QJ+WkdH2NLbTXvQRzwRIerTiCdihEKNdUO64UFVVUBBUTX8uobjCRMKh9iacNgo1lA9DuGIgun8qP2UPISCUXbtjVKt11A0L6nWZhwXbEWntW+EG/a9nba2NvbuSRGIaJy6VMFVmrj9rpu48/ZtNLf3Mvq+j9JR96NdWsBUr3S8KaiahuE1wFJpak0QbQuTz+TQo53owTiO5aJoMe7YdQN7d+ygo7uZPaNV6maJU8t+0mo/H71zkK09Iwz0tXHjDh8nV8Cv5GnyFsnVHDo650EvsiFVgxBis6w6pu3gXFn8A9QrZax6/erMJM0bR9ND6Kpz9ZpQx3b2/dyn+A9/8Af8t8/cQtJc5y/+/gTrhSyqU0OzHRoFoIaha+iel2xTZlbYWJ3i4tkDLGRcHO8gYY96eTTfJbe2yKHHDrO1KUxfMkQ+m2EjX6BqynypzfqJV9t4NYMSCqYLKC7p2RlqapJI9PLqXI+Hkm2QrptomgrY5Jd0Zo910PLLBgEAfwDDE+NctkzBdAAbRVmlvBSi3h+8nIyXSMc4VuAmqg4oqsaavUFNi6PZNvm1LMmhZpoHolSX5nj2i9+j/P6f5z2/9TF6a4tMH3uY2Ysadv82tnYGftKPLYQQ/8pUUNrZ0llldmqMQ0cDnOv6GH09W0hQpcZLTjdw3Ku7ubmOi+O6KFytnwG3ERipGpquoWgatfUJJit1Dk9XGO5Mkgj7KXt+TP9Z7hLnxyf50riHnx5KkoqHyG3kriTfoDTuV3AI+HUSsQBUVRSXy5W5CoqDHvOjag6qW3vJvTbe9cM8dg5m1zTeNhwlH/Sja+rlfjS3scmD7aKqGsGQgUdzKZkma/UKLxznUjQVNxInGYvTEohQbfFxy8d/g1T/MAmXlxsSE0KIH+9yh75XNyijYNo02sPzc5huglDE8/JFS8sI7fZpOk9OonwgzuS6TbVYAwxghVpOxVFiL7oln1vlwonHULrfwx3bu2gLGc+PcFizrJ59iM/d9238TzyLTzWplkxs7zjq732S2/d2EUO8kmsMjFxcu45pWdSsRgTc1dnG8fkCpw8fRm3V2Z/uI7Wtg0HWePgvjjH08ztp8mp0Lk7w8OkJutVpztY0Fm58Nz9fH+PvvucSiai8o2eIm+/dz1psD2MVl9rCSei9mZA2Q3pijgNrrey8ax+nahUOPXkSrVNlYSNHZ+cIIV1jcmWS7o7baI9HUfPrpLpznMqukl5qI2EUWVxOY/VZqLIrhxDiLaxjsJeFhSmeeeAo3R+6lY7eKFAA18YyLWzbxXUdzHoN5/K8ckVTCfh0ZlZXSaehyadSMwPMzi5Qy+ZZXZhkZTlIuV0nX7ZYzjj0tVTJZUqUzQBNgFWro1r2i9Zp2uVlCulJCul+zB6HYn6dTDpNkwOqppJfXGKqcIRLajPTh9YpJMLcvNWDJ73BsXPjJMoO0bYik0e+Ry74DgZHulDtc9RrFrbt4CgOZrlKNTvH0rqPpUICx7YoZWfwxftw6Me1LcwrW3q7Dopbp6YYtHqKhFdmuO/7p7mh2yHgTZBe1xlWiyyv1yli0RdT0FJ9hMJhAlI1CCE2zYUr7WG7seVcZ0cnS7MFxo4fxNvu55HVLpIj7Qyq6+z/62P0fWAXtmpTmF4l3hTGyR9l0jZx79pFfDDCnmdPUJhe5ETrVrSFxyn6hmiOebGmv8fDa9u4IbxEJTfJY/NBbklUqK4vs1YP4glFWLhwGMOrYnffym/+bg9en4+N2XEW55copvbSkwohQwKbc22BkaKiRrppc5KYIQ0UlZbOAeLrM8wsLbDg+DFbb6Krr4sevcDp6TTNpkZPaxP+Zh9H5xeo19K4zT0M7t5K3DjL4mKJnNpDpKWDD3QcZLG8zPlJjVDZoGffAEmOsbayxEqhjY59P8PKuTnS8+dZ1KIEmrpoS0bw2nlm02V2DntJeMATiTP0rptYmapQmDnHpM+iEu6jq7WZpqjsPSSEeOvyt20h2rVB9OwUNw/46QgDqChahJY2i2DYi2FotLR24/N6AfAG43TuuoNl1aW2kcEJ+Ui2jZAvl1nIFyiXXIZaIjTF/IS0Ok2hIqZp4U0k8cVTxD0a+mAXajJM6AVdn443QjyRYk9MR7dNbF+SYEuAmF9BV8CqlShUV1hcqLNUDtPem+KGZpUFxaVWLpJbX2LeKTKRNugdStHV3YyaX6Gr3yQUCuPXPbRt6UCPROm0LBRNxaybBKMthCNRwj4v3miKJm8Yv1cF1Ysn3k9TJEy/TyFCEw/PLLDgVvHHFGy3kx19nTy7ZlAqlqkFNSxDx0GVwSIhxKa5aCixbtqtBNWwAigku4ZIrE9QWFhiwQ1iNu+hq7ebXl+Js7OrNFer2G6V9OIC5WqYUmYDvb2THXfsIZpUubv1PBfT60zMLOFbsUmMdtKdUrHXTrKc66HfWkatV7B8fTjlLKuVHPloiuaeILnMKkq8i+7te/nAyF4AzNVh5qdnyLXsZLA1JDtvbpLiXsNRuq7j4BSWSJs+XG+UtrAGuGysLrG6lCZv6bT19JBMBFFrVdYWNgh0JAj7FWr5dc5NLFBTQ7R1tNGTikA9z2TaRPUE6E35oLrK5MwKqyWdQKKLLd1hPHaOcrlKxorS1hSgkplneWGenOmhrW+UtsAqqzMXeOigybt+6lY6mqNXcsva3AXS6RwlJUAo1UNXc4igR/txH1EIId7cXIuNjSLp7AbtHW34DAMFC9uukknXCQSDGD6FXCZNNJbE4/WiOCbUspybyWEEo3S2NkFpnbn5FSqWii+cxAoG6Ev4cMt5ZuYXKFsqQa+XWCJBIBHHWkzjhsP4YqEXHRBbL2VZvjDJmuXBH/WRSMXwBhLYz/5XjmSDTEXuZG/MJJJoo7WtlYBZZuzb32GucwAjHqXZqeAk+hhsiRDz2diVIqtph3CTF01xyC9XSPSkqGYWSC8tkjV1oskWorEmQh4VzdygZPvwBoIEdYtafpm80Uwg5CNgFlg6O066VkdLdtDa1UXKqLE6Oc3qWo6q4cENtNLXmSAZ8r5x36kQ4i3FdS+3h+s+XG+EtrAOuBRWl1ldSpOzNFq6u0klQmj1KutLGwTbE7j1jcbmM6Uali9BR2sznU2hRqJmlvTKMtPLVYh2MtDRRMJfxy5kWDWjhNUSVjHD5GoJF3Bs8IfjJLu6MGo5dI8Xjz+IX2+0c81ykWqliuWNEPIZGLp0/2zGtQVGrguujYMKroKmAoqCY1vYlo3tKuiGjq6q4DqNw/NUDU1tBFX1uomrqOi63pgf7jg0ZuQp6KoC2I1DBW1A8+A1FBTXwXFcHEVFUxVc28K2rMazfF6YP8D8/AzHjPdw55Y4TcFGsAYKtlXHsuzGDke6B0NTkY05hBBvZa4LjuvgOi6apjYOMr1cjDuO21i3ozQOUVWUxr8rKKA4mHULV1ExNBVwsUwLxwVVa8wA0DSlUXZbJo4DqqqhaiqqouI6NoqqXk7zhflxsOt1LFdB0VR0w0BxXPKP/iHPFVtJ9/4iHx724vUYaLpOLZ9n7P5vMtl/I+3DQ+xLuNiqB0NTUBX38tooUC/3YTm228ifY2FZFrYLmm40DpFVLr8QFEBFURxc12705qoq6uW8mW5jXapuGGgKOKaJZVs4KI0zojS18S7/db9KIcRb1IvawyiNXeFepj2sqQqK62JfPkwa18GxLCzHBUVD1zV07UpPk41tOZiWDZqBR29squDaNjYaKg64NqbtXN2nTFFUNMNAcZ1G+aWqV3egcx3n8mZloFw+9Fq8smsKjN6MnPw8hVKRbHCEtpCCVwaEhBDiDVc++10mzTjl5n3sazOu/t0sl1k6eZLVZD/JjhZ6ZeK7EEKIN4m3fGAkhBDizccupqk4GpY3StSjXu2tdCyLerFIzePH8HgIyPQOIYQQbxISGAkhhBBCCCGue7JBqRBCCCGEEOK6J4GREEIIIYQQ4rongZEQQgghhBDiuieBkRBCCCGEEOK6p1+8ePGNzoMQQgghhBBCvKH0QEAOkRBCCCGEEEJc32S7biGEEEIIIcR1T9YYCSGEEEIIIa57EhgJIYQQQgghrnsSGAkhhBBCCCGuexIYCSGEEEIIIa57EhgJIYQQQgghrnsSGAkhhBBCCCGuexIYCSGEEEIIIa57+hudASGEED8pF9e1qJRNdF3H4/W8xmm71EtVXN1A8xoYymuY/IseZeM6FpUKGD4NxbWolet4QiF0TeX1eqwQQggBb9IRIzlxVgghrkWNeuUkX/vbr3Hk2bFXuPZaS1gFq5rjmc9+hcefGOOS9WrzuAnuOtWlA3ztc08wfuki0xef4B/+/Z8wPZfFfB0fK4QQ/0ORhvSrtukRo2oxz9LEGDOnj7Gc2Enb6D7u7DLIzo9xYXKRxfUSuuIwf3qO1J6bGb75BiILZ5hcXiOTLqF7Q8T23cqu9ihxj3Y13fLyaaYvnObiqk2h533cPpKgN6piWQ4L0yeYnF5kreAQiLZy075RkqEAKuC6DnZumbPnJpiYXMLVNezurewY6mZLKoQLKLik5ye4ePE8K4U6mZJJV+8Ie/fuImG4qKqCnZknOzfBsfAeuqwM/uIU0xs58mYvu0cH6W7zUs3McfjABTKVPHVFx7JaePs799DeHET7kW9MCCFeI65JpZjj0ZPjbOnvZ6C9Fdd1URSFsxfOUajm2TE6wh3vjROJRH/4/uoyFx78G9wbP0lLdyvxa3y849iU1vLUSlXqL8qXC8prOI7jWDhmidxajVLeQ/fO3bzr4ylakkGudQzsyvsRQojXUrW0wfLEGDOnjrMQ30HLtpt4Z58P7CzjJ85z6dIsNV2noHSxY+cAuwaaLrdJwVofY2b8KA9PRohpFsGWHmJ923lbj5fKiSOMT88zUVex1yp037qPgdFBWoxGnKO4BdYXpjl24jwVU6NqBGjp6OLWG7bjeVFjtFEuTx0+wPipi0Te8bNs74gR9kiLdTM2HRi5KJi1MpW5w5zOhllt3sWd3QYKDrZtY5kVzGqWMxMzDHdvYUgBy7KoWw6unWdjZZ2zD0Zo++Au4h3hq+k6jkU1N8fy5BLH7DvY0tlEb9TFdnMszq1R3KiiqT4URUF5wUQK14X5+SkWl1co1up4bIuLj53EV1PpvnsLfhcwsyytLnBufpVgIISTn2Z8UmEj0MPPjsbwqpDOZDg+Pk11dCcuYNU2yGdnOTej0dPeTnebD9e2qJsWtqNQLSyQufAoE1u78ceDJI3X8usQQoiXoShYtSqTz53Ga0RoaW8lpLhQW2Vhapr1ssPOG7xEYykCAT+mXWFlaZzqxBoVLcDC6gTH/vkfqU63cOt7P8SdwwGKqzME4h2E/AFq1SJjqxZ9bWGCpQzzZ88zWaigNfcxMNRDl6FieHRMTXvxdDZFwSxnyU0f4uyiScnbTVvPILu6A9iZSbKlEksbNsvzy3gS7Qz199KRCJFfWMIKqmTSKyxNpinHh9i9vYeWkIGiaBge/fJ/I0STXfh9PsqZWRamLzGZtvCHBxgc6qQ9pVFeX6VWqzGzsMRyrka8e4TR3hRBr4FjFlk68ywTqxWsWD8dQ9sYSUD61DGmppbZiDYzcstNtPiUaw68hBDXJ9d1G+3h+cOcXA/S3LSLd/Z5Ka3Ns7yyxFquTCDiYXH8WbxBSPY30QGgQDm9yML5Mabqt7A1ohJRFRTXQq/nePr8PJMLOVJtQczqPJOXmjGCCVqGE41y13WwLZO6aWI7GkuLsxRrFbaMDNMU0NGvls4KbBzl0rEnOHiyyMiOAoMtUcJSyG3KpgMjXyhC/459dJjHmV+LU3dsQCXWtZPbunaCXaKwcBql9yaGerrZlQxhx9/OkAawwtLxk3z2/5mg8LZBnI7w1Tl8ofbdbN1TxfA/y0RVuxz8ZHGql8gXEmzbsZuBoSS27aCoCurlHkrXdTm3sky4f4Bbd+4mquT55mc+T+VshOk7trBVBSs7R64O/qFb+aVbt6LknuY7TyzwzSfO866t+/DqNWYqcMTp5N/2BAj5Y1hVH6F0E8VMFa9rAzrepkHu/tAwKlCePcCZ7JdZLGbIlHpIxl7z70QIIV5Cx+sPs8N2WM+anCvDTX6b+vJB9LqXeLgDrXqOR7+1ytZdO+neAo88/NeUv3ueRTPFRDDE0rSX7Or38cTaGGm9iYtPf5XBfb/CYHcvG2tz/PdHsvzuT29leOU8j37hz7hvbglGf4YPfeTDfPLWFK6i8HKLfKqZaU59+w/5i8crTPrfwW3v/yX+8yf24J7/DscvzfHQlMrxx54jMnwLH/vYL/HBfVuZeuoplto8jB0/zuFvHGB+6MP83qc/xM/tNRrlu6Lg8eeYP7/II188x/v/w69TnT7ED77293z9cJlY8wf4jd/+EO+9I87auSe4tFjggUee4eBEmv47f5nf/8RPs7UzzsbKJQ585U+498gy5dFf5T2/PkjvTXlOfu3LfP2bzzIzuJdfuqeH92xvoUMaDUKITfCFovSN7qPTOsHMSpyaArgOK3NzeFJd3HzTBxhOwZmv/F+cLU5zfHEfHe2NMaNKJYTq3c5d734/e5MGLV4F7DKsnOM7tVYSo2/n0+9tAU7zva/Pkj49AcOJy08Okurexft79wBw7OCjTC+vkq3ZxL0GV6YwOZbJ/MFvkClX8W6/m6ihY8jcuk3bdGCkAJruQUNBfZn3WyrkmBw/Qlfzu2mJpQBQL39JlalFpieXcX7pNsIdiR9a2KTpBqrqNsYKdaC0QvHYwxw6H+TQ+aeJ6BqGP8X7f/F9dDZFL2faRSut4422NBYCuz76ds4xF2tjLQckoFwwUUydiC+I64ASaydl5dh6cQXbBau6RsApsLU5hKFdyYuO53L9f+VjKsqVRb855tNlvrv+87y/pY0OCYqEEP9KNI+Xne/w842pHIXjZW66zWXuuf1U/HcS2dILXMJ1XFCgXjTJTbvs+j/+Ex/ctoP61FGe/ZuzmO/4bXbd+U6a1RXGXQeXxvUuLrYDVn4DvW87O/7gT/lIq8rR+/azPnmSQ9vfQ83hZaYOV7ACrRi3/DWf+zetpI/dx/TkNzg1v52+UpWCGaZp6918+ZP/K0uHH2aquMb940WG7SyHx1pIjv4Kn/3Ir5E++nccvnCE75t93NX5gtkBrotruTj2Bt7WW/mpj+/mo78f58TDX8TRLjKxMErELfPMSphbPvK7/M+tDge+8SAXVguk07MwcYz6z32B//i7Ll4nxOJKhkMPPEz9g5/idz7zh7SXJrnvj7/OpV95F5F3bCX8Q59PCCFeTAE0w8BGQXGe/3t2Y51qMILiMQCHju4kFzd01tYsaG+UnsFUBO+Cxdl7v8CRwgbJHTez9cYb2bsyR398J/HUlYZlN57oOK66/oIHa89PXbZmKeaKVMworUEv+pWgqFoiP3eOB+33EexIc7ffJAs4Ehdt2qvYla6xQ9GLOVRyeaafctnyKyFisUayCrB+7hEmptdZj47ws6PdtMe8P5SioigobuMORQVKeSqrS3g63sdAexud9hIrc9McnS+DL0pvsJG2rmvomtJYc6QoeIwSjlrHtC//dlQdXbPxenSuRF26BUapjoNGYek8SrlES+ttKJejOEVRUBT3cs+oe/lvABnOHz3K2FiO237mFxhoixO89pcnhBCviqZ7iG+/heTYfgoXplgafR9PnO+g9cY2hjsDuJVGgIProuoavlic9t4+2sNBzLYmUiENp62ZeAyMQqNcU1BAUVBVFUUB1RfFZ2exLuznKw/lGXtqktT23STdRmX8wwNGfoLGBs2VQ3zra1nGzxwkEIpyW93FdlwCsWbaerbR0Zmko9LF4qzBidkSA66Hjs5OuoaGaOnUaIm8nUv3gTW5gt2tvuRBCooewW9dZGb8Ge77Xp7ZmXOM3rmdlm4FFA+tqTb6+0fo6Syz0VPlrFXmVB7Cbozbdg0zeDniCarzPHzgNCeOTGH4w8QrKxw4cADuGmYACYyEEJujXO5QemFh5agOqAqaAqBiaHUcp0bdfH69oz/VxeBuL1prhpqVZu6iyeSXnmPoLgtPMIDfa9Boe3pwFBteuO2MoqCYRYorF/jSqQ0S3jZu3dNOyFCuDjhUSjkunZpk6453Eq/G8KUnKHk8aKqst9ysa9qV7kcHnDOUNuaZs0bwBcIEACyT0voys0vrlELN9Izu4bZWLxHDpV6pUMpVsa8GWO7zabuAZqCHo8Sa+7nxlr3c+vabGGqGpaLDcr4GroXluoCB6XoxAQWT+UyCWjVIUId8sQqqSx2bfKWOqipQTVOiQqEtjqFUWZhZIZMzaWlpRr0cGLluIy+NOK3xeqxaluWpeeYXLOJtPbz39hGSoR8O8IQQ4nWjaODfwkC0QlPhIKfPXOCi9xZ8yWGaFef5cst1UQydQDJM0GlsIVeu1qjWLSzbvnqd7aiomgEKOGYVx7aplYsU1pZZn5tidmaWtUKZOgq6Ao3tbF6iXiSfnmVyY4Xp+RmW14oUbA+a2ig+vT4/wcDlcMPQ0L0GhqqCaxBpihKOaIAD3iRBI0BQe3E9o6CgKA5Kfo751UVOL6wwNzvL2oZN3dEuV/YeulIxQl4PWCbxVgVNdchXNQqOl2Tg+fS8PoWyrWBmV8jOzbOcq9L/zq20diUwZNs7IcRmXS1wn+c1DGwXqk7jgpWcieMoRPwK5Y0yjm3jeCPEOgbZc+M+br1lL526yvyzM9j+CKV8kXK2CChgLWLWNCzTD06dSs3CdhxqhVWm5idYqIXpGNhK/0AHugL1eg3sDNnMPCfH5zCyM5TTs4xNzDEzPk2mWJPJdJv0qs8xeuELtifOklmZJvdTH8OINSrBYnaRs088xGznOxnq72ZHEup1E49eZHUqw+KcxbZ3DhLStRel6dpAU5LI4E6UY8tsLLWSNfIs5xWaunTM4hrz8yaBVDua6yFXqDC/kqdHX+Xcxi7aOrtoVjd47swyoy02FbPCXHqBXLUV/cI4WQO4fRB/eZJzSyEsXws3xl9uikhjCh1sUFg8xr2fL7P1ndu57d39mPU6iqajKgqKqrzctHshhHhd9I7eQL6U5/H9zxC78zdoGkoBhRdf5IJjOziXO59UVUU3DGq1GrUaOK6KjZdSpcrG2jqZtXWqFZX89Ekmo34y2z7Bf/xUF+e+/k1ma2A5jZkCLy3rnMXnOHd+kq9av8Af/X4f0XNfZuzsGHXAcaC6sUHdbv5zAAAgAElEQVR2ZZlafxtT48s4egs7hyNoh2rMLq1DUwHbV2H+0NNsRPeQ6mhHd2aer2BUDWwLZh7i6Uwnud5f4//7nQ5O7P8zNkI+qqZDGBfLtnEch8aAmQKqQdxeI7A+x6FLWfZ2afhtjcU1lXjnKB9+3x0MD/XT7nNxFSnDhRCv1vMd+xFfgIWNMktLCwzqBqeWw6gdcfoiNpPHJmje3Y2lqliFOi1NYdTseRbrG+S3dhNMhnEfnyaXcyjctA13/hi2E8fva8LNnOPCRge9wQL5zAyHlxX+lzsGaYoFsazGFKnVxTk8ZMhml1m2Kyz+4AHquVVymQpmyKZzqIumVFBGxTfhGgMjF9eqUTdN6vaVn4LD2WczXDxfYden44R8CmCSSy/wLw/tZzz3A1AMQl4dTzTJb/6bnyJ70uH4D7J03tFPSNdQHBvHrFE1HSzLAbULPQUda1/iS3/0V6SdFNt2vY+PdsVYGj/EsfF1tt3eyk27t/Ev33qAL3zh8wSi7dz+/l/klpu7sdJT/NP+83zm1+5mZ/tJ8kf+ik9/8s/xdNzAne95P795Y4Lq2Oeope4i1LWvMcJ1dUTUxXUszLrVWGxczjJ97AD7z57i26dd/v7LHhRVZ88HPsV7b9/DtrbAj3hXQgjx2gt1bMGKLXNp7gyf6DUYiENjirNNvWZiWy6u61Cv1xrBAhCONnHjnbfw7/7lXk7NlfjNn91Niy/AV//7n5AtBIh238B6vJ+mzh5YHuPRf/wHHvl6mGixzpZb3s5WF6xqDcW0sF+QF7V3K82zSyT/39/j39/fSXtXhZEbuuh2QNUM7I1LHD/5OZ766zmCzbt5z8/u4K52gznVS1f9DCe/8QD3np2l0HcH/9PPD3P7DpXKwjjVSh3btnGoU6vZ0Hs37QsPcPrrn+eT97XQPtDN9tvCxFwbxzIxTRvbAVwHx6xQqqsM7xmlv3WFr/+73+Er1XUSd32Ut3/gE9x96xDf+7u/5J+OX6TUksLq/SC/89FbuOPqAmchhPjxXFywa9RMi6ppg6LSu+1Gpu//Dt//23/g7+wAI+/4GT6w/Qba6ot851+eZXdfHHN9nKNf/RrPLeXJRru57ba7+cy/vYNYCn7jpm/y4A/+ml/9eAWj+2388odv4V39BWoz+3ly+S4U/ylyF5/gb+6b5+F/vg/F8tK+bR/v+PVfQzl3iHCqnVT/7Xzqt96GqhusnjnM9MQkuY7b2NIek6Bok7R77rnnnk1frSgongD+ZB89zU20hTXAxXa9RFu7GBhpJ3J1YwwNTzjOQN8Aw4N99A8MMjg0xJaREaLhJppaE/Rsa8arqqDo6MEkyeZOBpNeQh4FRQ8S9GkE4810Dmxl5+69bO2J4dMUguEITYkU0UgQXfcTizUxOLKNW27ZRW9rDAMVrz/M1v4uUmEfkWAYb6yboR03cdNoPx2+Kk8+O060fyfbhlLENK5OE1VcBVULEAwnaG1P4PPquJqfRHc3IyODDA30MzQ0zMjIVrpa4oR8si+8EOJfkeHH8MVItbazZ1svUaNxZoCiePAFErR0NhGK+AiForS2duH1eEE1CMTbUPzNDPR20tvRTDQYwRtM0N47yMjoDnZv72Z3fyuxUIhwOEJHdx/bR3ewbdd2ulubScWCtA33kIyHCF6dhO3D4w3RHAqSGhhg8IYdbNuxl86WVnzLz7Bs+akk97JroIsdu29i5/YhWv0OK+fGKSXaCLV2MdzZxcjOW7h1SyfxkA9UP6F4C539zYTDUWLNKdq2DhIP+mlJNtHcPcz2nfsY6R+gPREiHAoTTrbQlAgR8OmovjjhZB+9LRFaowE8iofk4CCDO3axdbCT3mQQVdGJNTfTNTzCwOAwo71JEiHZlk4IsVkKihEg0NRLb0uC9rABRgCPZhCOxWnpH2LPvn2M9LQQ1kH1+2kb6iDs0Qh5A8Q7eunfsoubd21nR28TqmoQDnsJRuL4E92MjO7l5tFempNeXNeHFu6kPR4gFGsh3jbCyPAgAwODjGzZwkB/Nym/RiLVQVOyhaZwkIDfRyKRINHaRkdvLy0Rn6wz2iTF/eGdFK7Jy53v9+LlaNeewGt9ZuCLWeTXV3jwyTluvnmI/vam1+tBQgjxr+CVStxrKpFfg+c1ZB/5Qw6Xuyhs/TgfHnz++mo+x7lvfptLQ7cxuGuA3S8YdH+tc3pN3tCHCyGEeDN41WuMrni5AOaa6paXSeB1PazcUQhGUrz3XXFCPukhFEK81b1SgflaF6ibTE81UFSw62UcJ9DYAIfLGyroGrprYVZdCDyf3hsal0hQJIQQ172feMTorabxcV1clOe3qxVCCPGasgrLlB0dy5Mg7lOublfr2DbVfJ66J4Dh8xLUpQwWQgjx5nDdBUZCCCGEEEII8VLXdI6REEIIIYQQQvyPSAIjIYQQQgghxHVPAiMhhBBCCCHEdU+v1+tvdB6EEEIIIYQQ4g2lVyqVNzoPQgghhBBCCPGG0pXX9dAgIYQQQgghhHjzU0zTlO26hRBCCCGEENc1OcdICCGEEEIIcd2TXemEEEIIIYQQ1z0JjIQQQgghhBDXPQmMhBBCCCGEENc9CYyEEEIIIYQQ1z0JjIQQQgghhBDXPQmMhBBCCCGEENc9CYxeQvYuF0K8Jbk2Zr2OZdn8+EMYrrWUc3FxwXVxHPcV0v4JuYDr4LguLjaObVKv1nBsRwpnIcT1x/2R/yNeJ/q1Xe6wMTtH2RPCG4sR96qgKFSyadbT62xYKom2dmKRED7VgmqWqcUMGyWFUDhOT1/qZR9o1WqUchnK/iZiAQO/roDrgFNlaWmV1WwZbyBEZ0cbIZ9OtZRjbn6ZmqnT1JKiORVDe1GKLlBjdXqe9Q0bI9xEX1/yJdeAW1lnfW2N5YKLt3WAjohB4AUZdGo5TNOmbjQR9kKluEGpUsETbyaogaYouI6NXdtgbiFNue4SjMXoaElhaBJzCiFeI46DbZvky1WCPh9erxdcFxTYKFSwnTrBkMb6WolgIEgkFn7x7VaF8voybqgVj9+P95qKJwXHqrB4bAK7uYVwV4qmlxamrxW3jFVa48J5h5a+GKEgZBZzxDs68PpU6ckTQrxJOGzMzlP2hPBEoyT8KqBg5tbJpNdZM10SbR0kIiG8LygvXbNMqZBhaWWDum3j+qME4230xA1UpUYxu8bCQh5bbaajJ0o0aLzgmQr1aonM8jTZkoM32kJTU4qoX8EFlJfk0KyUqNXK2N4oQY+OLu3STdHuueeeezZ3qUN1Y4Uz3/oGJzNQjLXTGzWAIhNHD3Ng/+McPjtJzpMgHm8i5qlRmD7Bg488xZNPn2d1zSS1rYeQob04QHFN1iZOcvrIc5y0ummK+In5FFzXwcxM8sSTT7L/wDHm1mr0DPQS91ssjJ/m/u/+gJPHLlE2/ITaW4kZ6vM/CruKlZngie/t56nHzzKTtmje3k3Q0NBccBVQcEiPH+TwM4/z6JFxJqwmmhNhUkH9coNDoTRzmPTSNGuebkKazcTRg4xdnKHePkTco2KoYNeKrE4eZ/+jT3Dk7DRFS6e/pxOvLj9AIcRrxDWplHIcPnMej9dLLBxuVISKw8XxSeZWlki2hliZzaDrXkKRAI2zuxUUBSq5BS49+lXWfL0Y0TghfbMjP437rUqeg39+L7OeCNpQJ60vrOhfLiFF4ZqHlhQFxVmjsnSC+740T6Q9RLQJls8vEGxuwePVUdn8iNW1ZkFRXtqsEEKIl+NQLaww9p1vcXzNJR9ppz9mABZLp49x5NHHePr0OBklQjgaJRE0rjQrsfOTTJ96jPt+cIyxU6cYzzrkgl1sb/GiFac4c/gZHv7+c5weKxNpS9DcEm60W2ncn1me5ND+ezlw5CzTG6AGY3Qmgy/qNHJdF0VRWBk/zfiJk2SCbcSCPmmXbtKmR4yWJiZ49lv/TCWQZqLeS2Xdhk6btbEnObvuYoy+m9/abvDZ707h8ypEdnVx6FKUd/70r/IL9gRnz4zxx188wKc/vJvdPbGr6U794L9w9PhBTim7KetVdvY0/l6pm9z/9Fm2bruJ93xwBNtxCAT8rJw4wtxcns53fIz/v707+7HjuhM7/q397lvvt3c2m93sZnPXQi2mbMuWYtmWxvZkQQbJwBlngHkY5B+YhyCYeZgA85AgCQIHMCZB4gTGjCHPjOPYlixRlEiRYje72Tt739d7+651a8/DbWuxCVvyyFFsns/jxa26VbcKp+p3zu/8zlPhDV6+b/LNH83xZy8OH+8x4Ghjk5/8xf8m9LWX+PITB1jz7/Dv/nuS33/+DOc740iuCftv8a2bZZT0Z/jG74f5yTf/nFX1nxJ54nN0RwF85m8tc1iu0NG9z8t//Ces5mWUZ75IYEmcite/Uyhuc/3OFE8//zu0ZTtR8DAM5d0bUxAE4e9NliHwuTu5jhZvojNLvYPJ96hUd7FMk5h6ib5TSWRJfjcg8G0LSdMoFw5ZH38dp/lZwu0naDX4YBsV1BPmJLk+Wh84DjU3QNZ0QpqCLIGkKEiy9HO9khAg+Tam5YNqoGoKGvX9QT39zrJsFE1HU+v7CgIJSQrqqXKWS6BFCGlQ/yEJWZHwPZ14LEv/5TRqWEfyPVzPxnFAUUMomoQiQeD7SDK4tovt+mghA02CnwZ1gWNiOwG+oqLpOqoEOBa24+LKKuGQ8YBzEgRBeLCdpUVu/c23KWqHzJuddOZc6PGpbN5hquzijHyKPzwZ5T/9xxu4FZv0S4+ROd7Wyq9h1XK0Pv9HXO3U6IjJuIqCJh/yd3/2IwpGhuf+5T/HuPEfGFtUKchP89xwqt5GVe7hOwWiZ7/B119KcOvm91ge+ytOdfwBmYhWb9ugHkGxx8y113j1+/Nc+tePcrIt/Yn8V7+JPnRgFEs3Mvjok7j5V9ixA0zXB2CnUCCS7qC7b5iGrMvj8Ws41Sjr1jD9g920d2VQqJDNrXPw4zLVqvuB/ab7P8Ogr+Mf1Ljuge3JQJGgMEMpf8TU5AylUpWGtk6GetupVWvU7IDWni7aUwH63CL720d4HL8oUKFkVRlv6ORLnW0M9TSyFxwSf+MWtUfb8DrjyG6Nw7kp4k2XaRk8T2trlZFTrSyZFtu7Ft0nVDi8xZSc5igzxOOJBMFLLxKbWCavBdg+BApweIfi3E0OahEmxu9xeGDR1tFLZ/ZBLw+CIAi/KhVV1ej3ttk7LDJpwjnDx9m6gVkysfRGfGeDyVtlWrs7SSYL3HjlZYxQE9FMO0f7i8xu5KhOzhJrG6BDkVidfJWmviu0ZBopHe3y7ckqnxtM0eCWGB1fxFdsDvIajd2dnB1uJZBlZOln2zafUm6De2/dwg5FOChU0cNpHnvmGWLrP2Z644D71RQtEYNq0abt5AAnTnZQufcWYwVwUGihwn5ul6ZzVxnsjRKXZGRZRtOr5PdXmP7xFiNfukh5d4HNhWWOlDClvRy9Zy/QdyKLtzHKW4s1XM8jIksUyiEuXb1Me8qhsD7H7dkcqmziR3sJp07yeHade/cO2D6sEomrWG43I5c66G6LfELXVhCE3ySxdCOnLj+Fk/sJW6aPadfnYB4eHKAaKTqyp8h0alxs+zbb1ST3co9xNV0fwbeqHnureyzt3sQ46uSZs110NOqQX+Zeuo1I6ymGsll4/FHuvWlibqzB8PFggtZEoiHD6YYsjQlobUhiVQvUXHh/Lp0U1LgzeYe1iknzUD+KF4Av5id9WB9uXC0IiGfSDD31Gc40NZBW6uloALYjYegK0ZAOgUKnu4ZfOGLfleg7kUEB7K0i+3sSQ0PtpOKhD+w61fsEZx77Ihfb4xiqRCADtV2s9RtYNYmjQo3VhUUmb99jt1zDaG8jk9Sovv0a19+YJPDh8b6m93ZYKVLzqlRGTpGOSUCaUMsAFyLzaG4JE3Asm6WpEj3NaQZ6FfA0ui8+TUhP4OSPwHPYnF3Ea+ug8cJl4mqcoS+8yKVnrpCNSkgESEBpaYyN8Tcxwx0Ui1Xm56a5NzND1fY+hksjCILwHs0Ic2UgTuWwzORsDSSH7bEfUKvUiDT14Dk7TN9d4GCrRK1W4t7Ym+QOc1iOh+t4eGgEnocE2I7JytxbFAp5wKdaPuD7k5tsFSpI+Jg1C8ex2JqdZWl6nh1XxudBDwwJ3/MwKya241DYnGFr7habRZfy6i1W748xsVnEqtmUtuaYX17h9lqFnekpppZ2WDq0cewKtdw0c5OLLC4dgVxvYRXNJLe1yt0f3qVYtXA9D6dWw7IstlYn2Nje4qBYobQ1y8z8GpsHJczyIatj15nbOWJ+M8fK/UX2yiamXcNxXI6KJrMzU6zv56i4LmYpx/Qrb7K+tov5//qCCoLwmycIiKXTDD75GYZbGshoyrsBSb5QJKxKNKeSgMFj53RSMZ+Vjfc2l2PtxBtP0+Ltkpu/zo2JacZ3ClTX5rGG+1BG+pEJkNuvkojqxNzt9zbWWwkn2mlLAM4u1bKMr/US0qV3jyFwLcqby8yvWoTae7nwqREimorya62a89vlw40YHadb+E4N2/PeCzwDaAwklncKFNR1OgKf0Xs75HsrDAcQBD6SZDJxc4WxsR2e/eOv0NHw849Wx6piufWqQ5ICFPMcLcyxUfk0X/ud5xgJl7nxvR8ynysx1N1Ddn+Bm3/yp/xPtZ0v/ZN/zDdeOMlxOj2BW8OtFYk5EWS/PqqlyCEaemroYY8A8FyP/dUQ7hAoEiDJEGskIkPYtXEcm7dXUpy7kGD4xPGJImGZNVy/fv8pwO5OnqWVEtaTHXzpHzzH/sJNJqZGyZUHMVJhNJHOKQjCx0RWDZqffhLjvy1RHB2jPNTH6O1pjPMX6OlrAmcVTVeR5QBZD9PYN8gjz36e9rYspU0d/5aO98h5+vpTRKu76EYYSa6Ps8uyQkxXCeQo8WwTn3uhHU+WaK1+l12/xp4Frv/zgVEQSCQbu/j0V38XVwpRaKmxu7XMftWnIdBo6h7h8omv8MKggbtg8/KywysTRX5XTnH2wmVaB/u5nLSh1Mh3v11l750l3Gfl44e8hKKq6GGDwJVoP3WejhPDWKbJXDxHKRqmUHZpUpOcGern5PAQJ+O73K2NMlMtsboh0Vpu4KV/9Bzp45GuYv6Av/xOiYtPPcG5oUGc7RX8N/8CuzTAYdBLhxjqFwThF/lp+rFbw3br78PS8YTGUuGQGo24x+1XIt2J4aZxHQvQAUj1jvB47wiPA9a9b/Gt8Wn+zQz828F1UsEp4kq9iAMkMOIykux84OcDwLfLsPwDVpYVDo2zNITVd+ful3OHzFx/m5ZTTxGrHaDm1qg4LsdJXsKH8BGr0r0n8H2QZbouX2VvfJqp+et8b1nD8pM0NTWTCoGUm+b1qR3KyWYe/73LnMjIhH9ZsHA8wywcj9N9cYRYQ5IIOVq6bW7swuq9n9BhbXPlz/89z8dg6vXr/PV//iaPfP0PGYmDFI6iqHEOAwXv+Ab23Ao7M1Ei50IYgB7RSbUXOdADHA+QPYL8FiU/g6fK+J5DENMI68rxrfzgw5Rlh8YGjbYLg0RCkHINmrwoGzWLlG+gySIyEgThYyIpoJ/kdOOrbG1fY3T6BW4n/4Cr2fP0aBaW89GKuUr4SAQgK8iKhqTIBNYRB8srvD02TdnV2Hxnjmh3H4OyxIOmTEp2no31ZV4ZX0R1wd68i6LrdAwdTxdSZJTjSkhqKEwsFkE3DQJTRlcVNAVAhniaaEJCwvq5o5Tw0Wub3B2bYHZ2AwKfve0l2s91czrzXhvrBzKyopFp0DCUgEPfx5cl4u9L/9M0gBJzt66xPT2BVTMptreTTiUJP6iskyAIwi8RHFdWCIVj2Jp+PHgQkNtexDRDGFnjge2nMfIMp8en2Xv1LsH5JnYsHSyXetd7jlreJ5BjH9jGPNpmZfKHTPgD9D3Vw5ezmfd1WOXIr97gf/2fa2Q2ioS9MpWDHNWETTr5PJH+RsK/zj/it8RHfnMPfA/P93E9H5Ag3sqpobM8cX6QvpYIle5h0u0NtNiHXHtzAz3ewplHRhgayBJVQOaQhZvj/OAv36HgHKecBQGB7+L4AZ4LZJoJ9Z+F9WXUcgnTVdjYKZOISVi1CnlXpnFkkBO9/USKFqu3FygU9/ivr04ztlIiEo7RcmuC/byP721T2ZjkduZpjCDH4uJ9/scbm3SfbWZh84Dx6SooFrM3fgSyQzKtYO2N4qWaIZz6mXP38T0PD/CA9u5usl29LEyu43hQ9Qvsl9eJKQqKJIIiQRA+ThKg0dvfSkSxufZXN4gNnqflRCdgQ+DjeT6+X39Qe56L79fbWM/zsGsmBAGSDL4vUXDC2FIIq5Rnb2WWw90iubVV9raLHMntnB7oIaGGMAsOPgGe6+H7Pu/veHR2JtlaGmXO66ZncJCWaIC5u1GvwCRLFPYO2VndAmBmukyl4HBhQEdT87w+uc7dFRMwWf3+d8hjop3oRPVcPMerr5mEhGfbWKs3mNzIs6L1MTI0RMLfJDD38ZHrzyTPw/N8CAIUOcBXNZK1A/SNab43a1LGxa5ZTE8UaS0dUFDbsFvOceHCRa5+8QVOneggJjJNBEH4KAIPz/dwj9OoWpvSmI7P5t4eBGV+tJ7GMhKcCh1x4zvXWT84YKVYZmGrUN8+v8aeW2Czt5PkyTO03JlCvT1BDQl75m8oSRpOOIK/eY3XJzfZXb1HYXeKUauXnp4zXBxsJZHQkQKPhelRFhfXqKVP8tkXX+KZJx5h+EQnHc0NtHa1kYjoaL/gVIT3fLQRIwkkI0E8EkE/LszuuzVkzSCdymAEZVIjF+nsaiNlHjExf8SjvScwXJO9rSKBLNGSyrE+s8ztV0zO/cOzJDQFSdbRQknSyOgSoLRidF4mlX+N/OIkZjTCbrmRc806Na+T0rbM9sIKariKqTXQ2Rcm7ed4c3SeQDvJV4YyXFGO2N1c5Vb5EHmnQOTKF2lOzTB1f5rXFzJ89WsX0Dd22Zm9xVIyxUpOoedCA41Gia3xd4h0/jNC8Q8GRmrIIBwN1/PvfFD7LtFSNTh4fZylXshXypjJCO0RnfCva50PQRAeasmes0Tu58m/tcxnT8fpaK5/Lsk6sVgYzZBRZIVoNIGi1pt4zYjS3NPPtlmllIMGXSUSzZI7OMTf32J7/YCY2o4WgE8ILZ6ipS1Ke7aFAzlKSJaJpuNIYf0Do+huYEHgk9IbaWlJE8u2UavWMBRQJbBKR+zbi2ysK0ws24R6w1zq1jgaddjZ3UVbWWI77HDrzhrSozGaT7Yjm1vEUwq6pqNqAbFMFHwHWdVJRJroaA+z05YhiOqoioxqRAj7Gpoi1Ue/Qil0I0p/Q4jwoccrdxbowiMcJNnMaZzOtlBNZomks2SzDo4SJxHRPrDWiCAIwi8SICHpCeKRMKper6bZ1NaNls+xvzjLBnFW1TNcau+mX8/z129Mo11oxw1VKM7vEvLbqd6f4zAWJ/PSZdItBo8xytbeDHcXmohMraJnz9LaEMHZ+SHj2wkaUnOE5CprtStcCQqUdoocqRFCkQjrKzN46V76zj/BF06eA6C8lma1oZF8+1k6GqK/eorYQ+YjrGNEvbfRd7DDWRozjXQkFJziNqO33uTaW++wWtJ4+vIlBjubqZklisUl7s/NMjE2wezcHEurGySa24nGW8k0J+kZbsVQ6mVoA1lHiXfQ26CTMDSUIE4qVGVmfpqF3TInLj3Dua4Gelvi6HaVG6+9ztjddeIj57jy1c8yEJNBMujONnOio5HeC0lmxt9hdL6M03SJf/HpXjJRGSuIkmzI0n9qmAFjBWn7Dm/PFGn57B9xYaCN2toEb91YYuTK07Q3ht8XYUsEroMSixJvbqJRl1D1JpRYKyl3hrGxd6joXZx54kV6MzqyKNUtCMKvgxrGNZIYTY08PtxDg64hUS865LlhGloyxOI6QQAtLR2EjBB6OEJn3wnG53YwazZdXW20GRKzE3dZWisgZ4bpOd3FU+f7iComS1M3uTO9hpyI0XdukLaWZqK+R7IrS7oxQfx4QFxLdROPxOHmD7g9sUwl1kTvo5+iuTFLaP8mOddj2wuxOjlKpOMUI+fO0mXI7M1s0NmbQLe2GRtfoHj297h66QwDDeB74JCgrSdNOBxCVqN0X/08Tc4OzvQr3BhfINL9JB0nz9McDxHRZJRII+l0nKgBvh9ArIue4X4GBtoJjb7C5L0ZclqCwSfPcuZCP8H9cdZv/phb80tM7Kik03GaEsYnelkFQfgN49s44TYaMhk6kzpqNIN+tEfu/gxvzx1w+bGLXBroJhyApBu0DXYRs3KU749zfXScSbuLCyOX+frlLBIGnedjuOED3nhzmrXkszxyfoizHTpBoEOsk7aEjlMqsjYzyeL8LBPjc2znqmhtnaQMhaamJhLROJHj9Yoc2yZQNIxEhnRMRxMLvH4oUvDA1fkeLAgCcCqYvgqKTliVCDyLcqlMteYgaQbpVApdlfEci3K5hGW5uH69npGiyiSScfAkXCsgkgqhSBKBZ+M6DiYhQpqMrkgEfoBbK1GsVHEDlUgsRTSsIks+dq1K/qiE50mEEkli8TC671AwXVRFIxpSIaiROyxiOjJ6NEpTIgyBTc3yqHkKiagOVoFKqUzZ1Yg0NBM/uMnN2R3+dn+Af/WFkzTHfhoW1f8iz7JxPB+MELoMslSvyGRVjihVLSQjRjSeIKIEPDChVBAE4e8rCLAdm2rNIRYLo8oKQeBD4GGaHpquoSgStZqJYYSQFQUp8MG3yR1VkTSdeDyKZJsUimVcT0ILRQl0lURIJXAtisUitge6phMKh1B1g6Bigq6hGPrxOkF1nlPDPMxT9mXUkEEkFkGRVCrX/pRbxQa2s1/m850K0WicSCIGpQKT332Z1Z5zZLraOR3x8SMpMhEdXfHxXQfTDNBDChIBtuliJCJ4ZolqqYjpyRjRBKFQCEJ13b4AAAH6SURBVE0GybdxfQVFU9HkANeuYkthdF1FDRwq+wdUHB85EiOaTBKWfar5PNVqDVtRQIuRioeI6KI/VRCED6f+PlzF9BV8WSem1SvDOdUKlUoF05WIp1JEQjp4LmbFQo+GCTwLq1ymbLv4WoRkLEosdNz2BDXMSpV8yUIy0qQTBiHVw7ctTF9Hkxx8u0ahYuEHEPigGiEiiQSqbyPLMrKmo/50fr3j4HkugaKhKQqyLN5LP4yPFBj91svPs3zkcz8Y4FNdEFLFTSQIgvCrKN36L0yZzZS6v8Dnet4LOuxymaXXXmejY4T2k12cft/cYlH/QBAEQfgkiS6y90ufojcNvZ/0cQiCIPyG07PnydpRrHiAHwTvphfLmkZDfx9qPE5c+eDqSCIoEgRBED5JYsRIEARB+NgFwXHl0mPScWD0s48cSaQdC4IgCP+fEIGRIAiCIAiCIAgPPVGiQhAEQRAEQRCEh54IjARBEARBEARBeOiJwEgQBEEQBEEQhIeeurCw8EkfgyAIgiAIgiAIwidK1TTtl39LEARBEARBEATht5ioSicIgiAIgiAIwkNPzDESBEEQBEEQBOGhJwIjQRAEQRAEQRAeeiIwEgRBEARBEAThoScCI0EQBEEQBEEQHnoiMBIEQRAEQRAE4aEnAiNBEARBEARBEB56/xfc3komGmxIaQAAAABJRU5ErkJggg==;" vertex="1" parent="1">
          <mxGeometry x="400" y="40" width="644.62" height="120" as="geometry" />
        </mxCell>
      </root>
    </mxGraphModel>
  </diagram>
</mxfile>
